<svg width="60" height="60" viewBox="0 0 60 60" fill="none" xmlns="http://www.w3.org/2000/svg">
<rect width="60" height="60" fill="white"/>
<g clip-path="url(#clip0_39_58)">
<path d="M21.2903 39.6775V44.5162C21.2903 45.5852 22.1568 46.4517 23.2258 46.4517H36.7742C37.8431 46.4517 38.7096 45.5852 38.7096 44.5162V39.6775H21.2903Z" fill="#FF7B0F"/>
<path d="M38.7096 20.3227C38.7096 18.7218 37.4073 17.4194 35.8064 17.4194C34.2055 17.4194 32.9032 18.7218 32.9032 20.3227C32.9032 21.9235 34.2055 23.2259 35.8064 23.2259C37.4073 23.2259 38.7096 21.9235 38.7096 20.3227ZM34.8387 20.3227C34.8387 19.7891 35.2728 19.3549 35.8064 19.3549C36.34 19.3549 36.7742 19.7891 36.7742 20.3227C36.7742 20.8562 36.34 21.2904 35.8064 21.2904C35.2728 21.2904 34.8387 20.8562 34.8387 20.3227Z" fill="#2F2F2F"/>
<path d="M56.129 15.4839H58.0645C59.1317 15.4839 60 14.6156 60 13.5484V3.87097C60 2.80379 59.1317 1.93548 58.0645 1.93548H56.129C55.0619 1.93548 54.1935 2.80379 54.1935 3.87097V3.98323C53.9361 3.90968 53.667 3.87097 53.3919 3.87097H42.6495C39.2263 3.87097 36.0081 5.20403 33.5875 7.6246C33.1463 8.06577 32.9032 8.65246 32.9032 9.27665C32.9032 10.5648 33.9513 11.6129 35.2395 11.6129C35.8635 11.6129 36.4502 11.3699 36.8915 10.9286C37.6985 10.1217 38.7713 9.67742 39.9122 9.67742C42.4508 9.67742 44.5161 11.7427 44.5161 14.2813V21.4569C43.3898 21.8563 42.5806 22.9321 42.5806 24.1937V32.9033H38.7097V26.4435C41.0509 25.3325 42.5806 22.9534 42.5806 20.3227C42.5806 16.5875 39.5417 13.5485 35.8064 13.5485C32.0712 13.5485 29.0323 16.5875 29.0323 20.3227C29.0323 22.9535 30.562 25.3326 32.9032 26.4435V32.9032H29.0244C28.9656 31.73 28.4583 30.6533 27.6241 29.8736L28.3481 29.1496C28.7894 28.7084 29.0324 28.1216 29.0324 27.4975C29.0324 26.3462 28.1944 25.3891 27.0969 25.1982V9.11044C27.0969 8.2679 26.8547 7.46262 26.403 6.77419C26.8546 6.08565 27.0968 5.28036 27.0968 4.43794V1.93548C27.0968 0.868306 26.2285 0 25.1613 0H23.2258C22.1586 0 21.2903 0.868306 21.2903 1.93548V4.43794C21.2903 5.28048 21.5325 6.08577 21.9842 6.77419C21.5325 7.46274 21.2903 8.26802 21.2903 9.11044V25.1982C20.1928 25.3891 19.3548 26.3463 19.3548 27.4975C19.3548 28.1217 19.5979 28.7084 20.0392 29.1496L20.763 29.8736C19.9288 30.6533 19.4215 31.73 19.3627 32.9032H13.5484V25.0923C16.827 24.6213 19.3548 21.7938 19.3548 18.3871V16.4516C19.3548 12.7164 16.3159 9.67742 12.5806 9.67742H11.6129V15.4839H7.74194V9.67742H6.77419C3.03895 9.67742 0 12.7164 0 16.4516V18.3871C0 21.7939 2.52786 24.6214 5.80645 25.0923V32.9032H2.90323C1.30234 32.9032 0 34.2057 0 35.8064V55.1613C0 57.8294 2.17065 60 4.83871 60H55.1613C57.8294 60 60 57.8294 60 55.1613V35.8064C60 34.2057 58.6977 32.9032 57.0968 32.9032H52.2581V24.1935C52.2581 22.932 51.4489 21.8562 50.3226 21.4568V16.0507C50.3226 14.671 51.4452 13.5484 52.8249 13.5484H53.3919C53.6671 13.5484 53.9361 13.5097 54.1935 13.4361V13.5484C54.1935 14.6156 55.0619 15.4839 56.129 15.4839ZM56.129 3.87097H58.0645V13.5484H56.129V3.87097ZM46.4516 17.4194H48.3871V21.2903H46.4516V17.4194ZM45.4839 23.2258H49.3548C49.8884 23.2258 50.3226 23.66 50.3226 24.1935V38.7097H44.5161V24.1935C44.5161 23.66 44.9503 23.2258 45.4839 23.2258ZM38.7097 42.5806V42.7471V44.5161C38.7097 44.715 38.6794 44.9067 38.6238 45.0873C38.6785 45.2085 38.7097 45.3425 38.7097 45.4839V47.4194C38.7097 49.0201 37.4072 50.3226 35.8064 50.3226H24.1935C22.5928 50.3226 21.2903 49.0201 21.2903 47.4194V45.4839C21.2903 45.3425 21.3215 45.2085 21.3762 45.0873C21.3204 44.9067 21.2903 44.715 21.2903 44.5161V42.7471V42.5806H1.93548V40.6452H32.9032H38.7097H58.0645V42.5806H38.7097ZM22.5075 30.9677H25.8796C26.635 31.4256 27.0968 32.2363 27.0968 33.1317V38.7097H21.2903V33.1317C21.2903 32.2363 21.7521 31.4256 22.5075 30.9677ZM42.5806 34.8387V38.7097H38.7097V34.8387H42.5806ZM30.9677 20.3226C30.9677 17.6545 33.1384 15.4839 35.8064 15.4839C38.4745 15.4839 40.6452 17.6545 40.6452 20.3226C40.6452 22.3692 39.3489 24.2027 37.4193 24.8849L36.7742 25.113V38.7097H34.8387V25.113L34.1936 24.8849C32.264 24.2027 30.9677 22.3692 30.9677 20.3226ZM32.9032 38.7097H29.0323V34.8387H32.9032V38.7097ZM23.2258 1.93548H25.1613V4.43794C25.1613 4.93694 25.0037 5.41052 24.7158 5.80645H23.6712C23.3834 5.41052 23.2258 4.93681 23.2258 4.43794V1.93548ZM23.6713 7.74194H24.7159C25.0037 8.13786 25.1614 8.61157 25.1614 9.11044V25.1613H23.2259V9.11044C23.2258 8.61157 23.3834 8.13786 23.6713 7.74194ZM21.6911 27.0968H26.6959C26.9169 27.0968 27.0967 27.2765 27.0967 27.4975C27.0967 27.6046 27.0549 27.7052 26.9793 27.781L25.7281 29.0323H22.659L21.4077 27.781C21.3321 27.7054 21.2903 27.6047 21.2903 27.4977C21.2903 27.2765 21.4701 27.0968 21.6911 27.0968ZM19.3548 34.8387V38.7097H13.5484V34.8387H19.3548ZM1.93548 18.3871V16.4516C1.93548 14.115 3.6006 12.1598 5.80645 11.7102V17.4194H13.5484V11.7102C15.7542 12.1598 17.4194 14.115 17.4194 16.4516V18.3871C17.4194 21.0552 15.2487 23.2258 12.5806 23.2258H11.6129V38.7097H7.74194V23.2258H6.77419C4.10613 23.2258 1.93548 21.0552 1.93548 18.3871ZM2.90323 34.8387H5.80645V38.7097H1.93548V35.8064C1.93548 35.2729 2.36964 34.8387 2.90323 34.8387ZM55.1613 58.0645H4.83871C3.23782 58.0645 1.93548 56.7621 1.93548 55.1613V44.5161H19.5227C19.4152 44.8192 19.3548 45.1444 19.3548 45.4839V47.4194C19.3548 50.0874 21.5255 52.2581 24.1935 52.2581H35.8064C38.4745 52.2581 40.6452 50.0874 40.6452 47.4194V45.4839C40.6452 45.1444 40.5849 44.8192 40.4773 44.5161H58.0645V55.1613C58.0645 56.7621 56.7622 58.0645 55.1613 58.0645ZM57.0968 34.8387C57.6304 34.8387 58.0645 35.2729 58.0645 35.8064V38.7097H52.2581V34.8387H57.0968ZM54.0762 11.3295C53.8934 11.5123 53.6503 11.6129 53.3919 11.6129H52.8249C50.5701 11.6129 48.7039 13.3038 48.4246 15.4839H46.4516V14.2813C46.4516 10.6754 43.518 7.74194 39.9122 7.74194C38.2542 7.74194 36.6954 8.38754 35.523 9.56008C35.4473 9.63568 35.3467 9.67742 35.2396 9.67742C35.0186 9.67742 34.8388 9.49766 34.8388 9.27665C34.8388 9.1696 34.8806 9.06883 34.9563 8.9931C37.011 6.9381 39.7432 5.80645 42.6494 5.80645H53.3918C53.6503 5.80645 53.8933 5.9071 54.0761 6.08988L54.1934 6.20722V11.212L54.0762 11.3295Z" fill="#2F2F2F"/>
</g>
<defs>
<clipPath id="clip0_39_58">
<rect width="60" height="60" fill="white"/>
</clipPath>
</defs>
</svg>
