<svg width="60" height="60" viewBox="0 0 60 60" fill="none" xmlns="http://www.w3.org/2000/svg">
<rect width="60" height="60" fill="white"/>
<path d="M11.0642 31.3596L11.8935 30.2186C12.4587 29.4405 13.0761 28.7118 13.7303 28.0247C8.75419 27.6241 4.83871 23.4667 4.83871 18.387C4.83871 13.0421 9.17129 8.70956 14.5161 8.70956C19.861 8.70956 24.1936 13.0421 24.1936 18.387C24.1936 19.7186 23.9245 20.9863 23.4377 22.1408C25.14 21.6512 26.91 21.3705 28.7148 21.3115C28.9171 20.3302 29.0323 19.347 29.0323 18.387C29.0323 10.3828 22.5203 3.87085 14.5161 3.87085C6.51194 3.87085 0 10.3828 0 18.387C0 24.9057 4.3829 30.6396 10.6674 32.367C10.7139 32.0041 10.8474 31.6576 11.0642 31.3596Z" fill="#FF7B0F"/>
<path d="M47.4194 48.3871H37.4148L42.2342 44.1707C43.0694 43.439 43.5484 42.3832 43.5484 41.2732C43.5484 39.9377 42.8719 38.7184 41.7397 38.011L36.3232 34.6248L43.02 27.091C48.0194 26.9507 52.6674 24.4413 55.5242 20.3148L59.4329 14.6681C59.8036 14.1339 60 13.5087 60 12.8574C60 11.1048 58.5736 9.67743 56.82 9.67743H56.2877C55.2736 9.67743 54.3116 10.1671 53.7165 10.9877L50.6952 15.1423C48.7645 17.7968 45.8613 19.5552 42.6736 20.1136C43.8126 18.901 44.5161 17.2742 44.5161 15.4839C44.5161 11.7494 41.4774 8.70969 37.7419 8.70969C34.0065 8.70969 30.9677 11.7494 30.9677 15.4839C30.9677 17.3787 31.7516 19.0916 33.0106 20.3226H29.4271C27.8855 20.3226 26.3623 20.491 24.8768 20.7977C25.0587 20.0119 25.1613 19.2077 25.1613 18.3871C25.1613 12.5177 20.3855 7.74194 14.5161 7.74194C8.64678 7.74194 3.87097 12.5177 3.87097 18.3871C3.87097 23.2752 7.26194 27.4868 11.8626 28.68C11.6052 28.9965 11.3536 29.3177 11.1116 29.6497L10.2813 30.7907C9.88646 31.3336 9.67742 31.9761 9.67742 32.6477C9.67742 34.3897 11.0942 35.8065 12.8361 35.8065H13.4448C14.4271 35.8065 15.3368 35.3623 15.9377 34.5871L16.7071 33.599C19.6268 29.8452 23.8916 27.5458 28.5716 27.1568L11.731 43.9984C11.0303 44.6981 10.6452 45.6271 10.6452 46.6181C10.6452 47.2616 10.8252 47.8587 11.1174 48.3871H4.83871V50.3226H33.5826H33.8565H49.3548V48.1616L56.1832 52.2581L49.3548 56.3545V54.1936H7.74194V56.129H47.4194V59.7745L59.9458 52.2581L47.4194 44.7416V48.3871ZM32.9032 15.4839C32.9032 12.8158 35.0739 10.6452 37.7419 10.6452C40.41 10.6452 42.5806 12.8158 42.5806 15.4839C42.5806 18.1519 40.41 20.3226 37.7419 20.3226C35.0739 20.3226 32.9032 18.1519 32.9032 15.4839ZM9.09775 25.1739L10.41 23.8616L9.04162 22.4932L7.72839 23.8065C6.72097 22.5503 6.05517 21.0184 5.86646 19.3548H7.74194V17.4194H5.86355C6.05033 15.7423 6.71517 14.2103 7.71775 12.9571L9.04162 14.281L10.41 12.9126L9.08613 11.5887C10.3394 10.5861 11.8713 9.9213 13.5484 9.73452V11.6129H15.4839V9.73452C17.161 9.9213 18.6929 10.5861 19.9461 11.5887L18.6223 12.9126L19.9906 14.281L21.3145 12.9571C22.3171 14.2103 22.9819 15.7423 23.1687 17.4194H21.2903V19.3548H23.1687C23.0932 20.041 22.9306 20.7087 22.6945 21.3571C19.1932 22.4516 15.989 24.389 13.381 27.0048C11.7726 26.7939 10.3055 26.1416 9.09775 25.1739ZM30.42 48.3871H17.939L28.1429 38.8626L34.02 41.8016L31.3432 43.9432C30.4897 44.6265 30 45.6465 30 46.741C30 47.3371 30.1606 47.8916 30.42 48.3871ZM33.5826 48.3871C32.6739 48.3871 31.9355 47.6487 31.9355 46.741C31.9355 46.2368 32.161 45.7684 32.5529 45.4548L37.5919 41.4242L27.8061 36.5303L15.6116 47.9119C15.2836 48.2177 14.8548 48.3871 14.3506 48.3871C13.3742 48.3871 12.5806 47.5936 12.5806 46.6181C12.5806 46.1526 12.7694 45.6968 13.0994 45.3668L30.9677 27.4974V25.1613H30C24.1645 25.1613 18.7626 27.8032 15.18 32.4097L14.4106 33.3987C14.1765 33.6987 13.8252 33.871 13.4448 33.871H12.8361C12.1616 33.871 11.6129 33.3232 11.6129 32.6477C11.6129 32.3874 11.6932 32.1387 11.8471 31.9277L12.6765 30.7868C16.561 25.4468 22.8223 22.2581 29.4271 22.2581H40.5203C45.1481 22.2581 49.5368 20.0226 52.26 16.2794L55.2823 12.1248C55.5145 11.8045 55.891 11.6129 56.2877 11.6129H56.82C57.5061 11.6129 58.0645 12.1713 58.0645 12.8574C58.0645 13.1119 57.9881 13.3568 57.8429 13.5648L53.9332 19.2126C51.3552 22.9374 47.1106 25.1613 42.5806 25.1613H42.1461L33.3542 35.0526L40.7139 39.6523C41.2771 40.0045 41.6129 40.6103 41.6129 41.2732C41.6129 41.8248 41.3748 42.3494 40.9597 42.7123L34.9403 47.9787C34.6403 48.2429 34.2552 48.3871 33.8565 48.3871H33.5826Z" fill="#2F2F2F"/>
<path d="M3.87097 54.1936H5.80646V56.1291H3.87097V54.1936Z" fill="#2F2F2F"/>
<path d="M0 54.1936H1.93548V56.1291H0V54.1936Z" fill="#2F2F2F"/>
<path d="M10.6451 5.15806H12.5806V1.93548H16.4516V5.15806H18.3871V1.93548H20.3226V0H8.70966V1.93548H10.6451V5.15806Z" fill="#2F2F2F"/>
<path d="M17.1358 19.6383L15.4839 17.9864V13.5483H13.5484V18.7877L15.7674 21.0067L17.1358 19.6383Z" fill="#2F2F2F"/>
</svg>
