<svg width="60" height="60" viewBox="0 0 60 60" fill="none" xmlns="http://www.w3.org/2000/svg">
<rect width="60" height="60" fill="white"/>
<g clip-path="url(#clip0_39_59)">
<path d="M49.3549 6.7741C48.2874 6.7741 47.4193 5.90596 47.4193 4.83853V3.87085H31.9354V4.83853C31.9354 5.90596 31.0672 6.7741 29.9998 6.7741H29.0321V28.0643H50.3223V6.7741H49.3549ZM33.8709 27.0967C33.8709 23.8896 36.4703 21.2902 39.6774 21.2902C42.8845 21.2902 45.4839 23.8896 45.4839 27.0967H33.8709Z" fill="#FF7B0F"/>
<path d="M55.1612 22.2581H54.1935V0H25.1612V22.2581H24.1935C21.5255 22.2581 19.3549 24.4288 19.3549 27.0967V36.7742H3.61267C1.62094 36.7742 0 38.3951 0 40.3867V56.3863C0 58.3789 1.62094 59.9998 3.61267 59.9998H29.0323H29.2908H55.1614C57.8294 59.9998 60 57.8292 60 55.1612V50.3226V40.6451V34.8386V27.0967C60 24.4288 57.8294 22.2581 55.1612 22.2581ZM27.0967 1.93557H52.2579V26.1291H46.3741C45.9017 22.8514 43.0828 20.3226 39.6772 20.3226C36.2717 20.3226 33.4528 22.8512 32.9804 26.1291H27.0965L27.0967 1.93557ZM44.4183 26.1291H34.9354C35.3843 23.9236 37.3403 22.2581 39.6762 22.2581C42.0122 22.2581 43.9693 23.9234 44.4183 26.1291ZM24.1935 24.1935H25.1612V26.1291H24.1935V28.0646H55.1612V26.1291H54.1935V24.1935H55.1612C56.7619 24.1935 58.0644 25.496 58.0644 27.0967V30.9929C57.2535 30.3784 56.2548 30 55.1612 30H24.1935C22.5929 30 21.2902 28.6975 21.2902 27.0967C21.2902 25.496 22.5929 24.1935 24.1935 24.1935ZM3.61267 38.7096H29.2898C30.2149 38.7096 30.9679 39.4626 30.9679 40.3867V50.3224H1.93557V40.3867C1.93557 39.4626 2.68837 38.7096 3.61267 38.7096ZM30.9677 54.1935H1.93557V52.2579H30.9679L30.9677 54.1935ZM29.0323 58.0644H3.61267C2.68857 58.0644 1.93557 57.3114 1.93557 56.3873V56.1289H30.9679V56.3873C30.9679 57.3114 30.2149 58.0644 29.2908 58.0644H29.0323ZM58.0644 48.387H44.5161C42.9155 48.387 41.6128 47.0845 41.6128 45.4837C41.6128 43.883 42.9153 42.5805 44.5161 42.5805H58.0644V48.387ZM58.0644 40.6451H44.5161C41.8481 40.6451 39.6774 42.8158 39.6774 45.4837C39.6774 48.1517 41.8481 50.3224 44.5161 50.3224H58.0644V55.161C58.0644 56.7617 56.7619 58.0642 55.1612 58.0642H32.4707C32.7377 57.5611 32.9033 56.9958 32.9033 56.3871V40.3865C32.9033 38.3949 31.2823 36.7738 29.2906 36.7738H21.2902V30.9421C22.1012 31.5566 23.0999 31.935 24.1935 31.935H55.1612C56.7619 31.935 58.0644 33.2375 58.0644 34.8382V40.6451Z" fill="#2F2F2F"/>
<path d="M44.516 46.4515C45.0505 46.4515 45.4837 46.0182 45.4837 45.4838C45.4837 44.9494 45.0505 44.5161 44.516 44.5161C43.9816 44.5161 43.5483 44.9494 43.5483 45.4838C43.5483 46.0182 43.9816 46.4515 44.516 46.4515Z" fill="#2F2F2F"/>
<path d="M10.6452 40.645H3.87097V42.5806H10.6452V40.645Z" fill="#2F2F2F"/>
<path d="M10.6451 44.5161H5.80652V46.4517H10.6451V44.5161Z" fill="#2F2F2F"/>
<path d="M9.67744 13.5484H7.74187C7.20856 13.5484 6.77419 13.1139 6.77419 12.5807H4.83862C4.83862 14.1813 6.14113 15.484 7.74187 15.484V16.4517H9.67744V15.484C11.278 15.484 12.5807 14.1815 12.5807 12.5807C12.5807 10.98 11.278 9.67749 9.67744 9.67749H7.74187C7.20856 9.67749 6.77419 9.24292 6.77419 8.7098C6.77419 8.17669 7.20876 7.74212 7.74187 7.74212H9.67744C10.2108 7.74212 10.6451 8.17669 10.6451 8.7098H12.5807C12.5807 7.10926 11.2782 5.80655 9.67744 5.80655V4.83887H7.74187V5.80655C6.14133 5.80655 4.83862 7.10906 4.83862 8.7098C4.83862 10.3105 6.14113 11.6131 7.74187 11.6131H9.67744C10.2108 11.6131 10.6451 12.0476 10.6451 12.5807C10.6451 13.1139 10.2106 13.5484 9.67744 13.5484Z" fill="#2F2F2F"/>
<path d="M16.4922 14.5326C17.0807 13.3607 17.4193 12.0426 17.4193 10.6453C17.4193 5.84346 13.5116 1.93555 8.70955 1.93555C3.90752 1.93555 0 5.84326 0 10.6451C0 12.0426 0.338619 13.3607 0.927106 14.5324C0.330024 15.7336 0 17.0497 0 18.387C0 19.7844 0.338619 21.1025 0.927106 22.2743C0.330024 23.4755 0 24.7916 0 26.129C0 30.9309 3.90772 34.8388 8.70975 34.8388C13.5118 34.8388 17.4195 30.9311 17.4195 26.129C17.4195 24.7916 17.0895 23.4755 16.4924 22.2745C17.0809 21.1025 17.4195 19.7844 17.4195 18.3872C17.4193 17.0497 17.0893 15.7336 16.4922 14.5326ZM8.70975 3.87091C12.4452 3.87091 15.4839 6.90969 15.4839 10.6451C15.4839 14.3805 12.4452 17.4193 8.70975 17.4193C4.97435 17.4193 1.93557 14.3805 1.93557 10.6451C1.93557 6.90969 4.97415 3.87091 8.70975 3.87091ZM8.70975 19.3549H9.67744C10.2108 19.3549 10.6451 19.7894 10.6451 20.3225C10.6451 20.8559 10.2106 21.2902 9.67744 21.2902H7.74187C7.20856 21.2902 6.77419 20.8557 6.77419 20.3225H4.83862C4.83862 21.9231 6.14112 23.2258 7.74187 23.2258V24.1935H9.67744V23.2258C11.278 23.2258 12.5807 21.9233 12.5807 20.3225C12.5807 19.7129 12.39 19.1478 12.0678 18.6802C13.2697 18.1761 14.3294 17.4047 15.1867 16.4476C15.3764 17.0767 15.4837 17.7289 15.4837 18.387C15.4837 22.1224 12.445 25.1612 8.70955 25.1612C4.97415 25.1612 1.93557 22.1226 1.93557 18.387C1.93557 17.7289 2.04291 17.0767 2.23261 16.4476C3.82936 18.2275 6.13733 19.3549 8.70975 19.3549ZM15.4839 26.129C15.4839 29.8645 12.4452 32.9032 8.70975 32.9032C4.97435 32.9032 1.93557 29.8645 1.93557 26.129C1.93557 25.471 2.04291 24.8187 2.23261 24.1897C3.82936 25.9693 6.13753 27.0967 8.70975 27.0967H9.67744C10.2108 27.0967 10.6451 27.5313 10.6451 28.0644C10.6451 28.5977 10.2106 29.0321 9.67744 29.0321H7.74187C7.20856 29.0321 6.77419 28.5975 6.77419 28.0644H4.83862C4.83862 29.665 6.14112 30.9677 7.74187 30.9677V31.9353H9.67744V30.9677C11.278 30.9677 12.5807 29.6652 12.5807 28.0644C12.5807 27.4547 12.39 26.8896 12.0678 26.4221C13.2697 25.918 14.3294 25.1466 15.1867 24.1895C15.3764 24.8187 15.4839 25.471 15.4839 26.129Z" fill="#2F2F2F"/>
</g>
<defs>
<clipPath id="clip0_39_59">
<rect width="60" height="60" fill="white"/>
</clipPath>
</defs>
</svg>
