<svg width="60" height="60" viewBox="0 0 60 60" fill="none" xmlns="http://www.w3.org/2000/svg">
<path d="M53.2258 13.5483H43.2803C43.4458 13.8338 43.5484 14.1619 43.5484 14.5161C43.5484 15.5854 42.6823 16.4516 41.6129 16.4516C42.6823 16.4516 43.5484 17.3177 43.5484 18.387H52.2581C52.7923 18.387 53.2258 18.8206 53.2258 19.3548V46.4516C53.2258 46.9858 52.7923 47.4193 52.2581 47.4193H7.74194C7.20774 47.4193 6.7742 46.9858 6.7742 46.4516V19.3548C6.7742 18.8206 7.20774 18.387 7.74194 18.387H14.5161V13.5483H6.7742C4.10613 13.5483 1.93549 15.719 1.93549 18.387V51.2903H58.0645V18.387C58.0645 15.719 55.8939 13.5483 53.2258 13.5483Z" fill="#FF7B0F"/>
<path d="M52.2581 17.4194H44.3381C44.2094 17.0574 44.0139 16.7313 43.7613 16.4516C44.2258 15.9368 44.5161 15.2623 44.5161 14.5161C44.5161 13.77 44.2248 13.0955 43.7613 12.5806C44.2258 12.0658 44.5161 11.3913 44.5161 10.6452C44.5161 9.04452 43.2136 7.74194 41.6129 7.74194H36.0784L36.6426 5.48516C36.7297 5.13677 36.7742 4.77581 36.7742 4.41484C36.7742 1.98 34.7942 0 32.3594 0H31.2377L29.4436 5.38355C29.2665 5.91581 28.9413 6.38129 28.5029 6.73258L25.6171 9.04161C25.1042 9.45194 24.4597 9.67742 23.8036 9.67742H23.2258V7.74194H13.5484V17.4194H7.74194C6.67452 17.4194 5.80646 18.2874 5.80646 19.3548V46.4516C5.80646 47.519 6.67452 48.3871 7.74194 48.3871H52.2581C53.3255 48.3871 54.1936 47.519 54.1936 46.4516V19.3548C54.1936 18.2874 53.3255 17.4194 52.2581 17.4194ZM23.8036 11.6129C24.8981 11.6129 25.9713 11.2365 26.8268 10.5523L29.7126 8.24323C30.4423 7.65968 30.9852 6.88161 31.2803 5.99516L32.6294 1.94903C33.869 2.08452 34.8387 3.13839 34.8387 4.41484C34.8387 4.6171 34.8136 4.81936 34.7642 5.01581L33.599 9.67742H41.6129C42.1461 9.67742 42.5807 10.1119 42.5807 10.6452C42.5807 11.1784 42.1461 11.6129 41.6129 11.6129H36.7742V13.5484H41.6129C42.1461 13.5484 42.5807 13.9829 42.5807 14.5161C42.5807 15.0494 42.1461 15.4839 41.6129 15.4839H36.7742V17.4194H41.6129C42.1461 17.4194 42.5807 17.8539 42.5807 18.3871C42.5807 18.9203 42.1461 19.3548 41.6129 19.3548H39.6774H36.7742V21.2903H39.6774C40.2107 21.2903 40.6452 21.7248 40.6452 22.2581C40.6452 22.7913 40.2107 23.2258 39.6774 23.2258H29.4358C28.6887 23.2258 27.9407 23.0487 27.2719 22.7148L24.4219 21.2903H23.2258V11.6129H23.8036ZM15.4839 9.67742H21.2903V23.2258H15.4839V9.67742ZM52.2581 46.4516H7.74194V19.3548H13.5484V25.1613H23.2258V23.2258H23.9652L26.4058 24.4461C27.3416 24.9145 28.3887 25.1613 29.4358 25.1613H39.6774C41.2781 25.1613 42.5807 23.8587 42.5807 22.2581C42.5807 21.8758 42.5023 21.5129 42.3677 21.1781C43.2871 20.9284 44.0207 20.2442 44.3381 19.3548H52.2581V46.4516Z" fill="#2F2F2F"/>
<path d="M55.1613 59.9999H4.83871C2.17065 59.9999 0 57.8293 0 55.1612V50.3225H60V55.1612C60 57.8293 57.8294 59.9999 55.1613 59.9999ZM1.93548 52.258V55.1612C1.93548 56.7619 3.23806 58.0644 4.83871 58.0644H55.1613C56.7619 58.0644 58.0645 56.7619 58.0645 55.1612V52.258H1.93548Z" fill="#2F2F2F"/>
<path d="M25.1613 54.1936H34.8387V56.1291H25.1613V54.1936Z" fill="#2F2F2F"/>
<path d="M36.7742 54.1936H38.7097V56.1291H36.7742V54.1936Z" fill="#2F2F2F"/>
<path d="M21.2903 54.1936H23.2258V56.1291H21.2903V54.1936Z" fill="#2F2F2F"/>
<path d="M42.5806 30.9678L44.5161 35.8065H48.3871L45.2584 38.3729L46.9122 43.5484L42.5806 40.35L38.249 43.5484L39.9029 38.3729L35.8064 35.8065H40.6451L42.5806 30.9678Z" fill="#FF7B0F"/>
<path d="M30 28.0645L31.9355 32.9032H36.7742L32.6777 35.4696L34.3316 40.6451L30 37.4467L25.6684 40.6451L27.3223 35.4696L23.2258 32.9032H28.0645L30 28.0645Z" fill="#FF7B0F"/>
<path d="M17.4193 30.9678L19.3548 35.8065H24.1935L20.0971 38.3729L21.7509 43.5484L17.4193 40.35L13.0877 43.5484L14.7416 38.3729L11.6129 35.8065H15.4839L17.4193 30.9678Z" fill="#FF7B0F"/>
<path d="M50.3226 29.0322H48.3871V23.2258H46.4516V21.2903H50.3226V29.0322Z" fill="#2F2F2F"/>
<path d="M48.3871 30.9678H50.3226V32.9033H48.3871V30.9678Z" fill="#2F2F2F"/>
</svg>
