<svg width="182" height="198" viewBox="0 0 182 198" fill="none" xmlns="http://www.w3.org/2000/svg">
<path fill-rule="evenodd" clip-rule="evenodd" d="M57.6945 78.5338C58.233 79.2857 79.6841 95.9675 79.6841 95.9675L86.7994 80.9033L99.5195 77.0301C99.5195 77.0301 100.273 65.9438 100.597 64.9778C100.921 64.0072 102.646 60.2434 102.536 59.3822C102.427 58.521 100.921 53.4631 100.706 52.1736C100.492 50.8841 100.058 45.0698 99.4145 43.9944C98.7664 42.9191 83.1254 35.232 80.8753 34.954C78.6252 34.6761 69.2324 32.1563 67.8312 33.6645C66.4301 35.1682 59.8304 41.5612 58.9815 43.6937C58.1326 45.8262 56.2979 50.8841 56.2979 50.8841C56.2979 50.8841 59.6387 58.3114 59.8533 59.7103C60.0678 61.1092 60.3918 65.7342 60.1773 67.0283C59.9628 68.3178 57.699 78.5429 57.699 78.5429L57.6945 78.5338Z" fill="white"/>
<path fill-rule="evenodd" clip-rule="evenodd" d="M115.206 144.769L121.505 151.44L125.982 156.357C125.982 156.357 129.683 159.998 130.678 159.597C131.678 159.196 148.912 133.46 148.912 133.46L157.3 124.747L163.9 121.845L172.736 126.201L177.437 120.168L170.276 114.249L167.926 110.339C167.926 110.339 166.022 104.867 165.018 104.197C164.01 103.527 160.208 99.8407 159.09 99.3942C157.971 98.9476 153.161 95.8217 151.705 94.2543C150.249 92.6913 146.114 91.1284 146.114 91.1284L138.506 94.4775C138.506 94.4775 135.708 99.6129 135.708 101.29C135.708 102.967 134.366 109.442 134.142 110.563C133.919 111.679 133.471 116.596 133.471 116.596C133.471 116.596 132.463 121.398 132.13 123.184C131.796 124.971 128.437 129.773 128.437 129.773C128.437 129.773 124.521 132.12 122.842 134.016C121.162 135.916 115.202 144.769 115.202 144.769H115.206Z" fill="white"/>
<path fill-rule="evenodd" clip-rule="evenodd" d="M6.02933 152.871C4.06679 157.605 4.87006 162.645 5.81026 167.698C8.7632 171.339 11.7207 174.98 14.6737 178.621C14.6737 178.621 31.0906 184.959 32.8843 185.2C34.6825 185.442 50.9762 186.754 54.0889 187.711C57.2061 188.668 74.9375 191.06 74.9375 191.06C78.2738 191.101 81.6147 191.142 84.951 191.183C88.5201 190.267 92.0938 189.347 95.6629 188.431C95.6629 188.431 98.6569 180.179 99.2593 179.341C99.8572 178.502 98.3009 168.933 98.3009 168.933C98.3009 168.933 88.1185 154.817 80.3276 151.468C72.5413 148.118 60.798 141.539 51.9301 139.388C43.0621 137.233 29.1645 136.039 25.9286 137.114C22.6927 138.189 13.1082 143.097 12.1497 143.812C11.1913 144.532 6.02477 152.871 6.02477 152.871H6.02933Z" fill="white"/>
<path fill-rule="evenodd" clip-rule="evenodd" d="M145.046 151.481C148.985 144.801 152.654 137.706 158.642 132.571C158.683 152.83 158.642 173.089 158.656 193.348C143.654 193.361 128.661 193.339 113.659 193.352C114.033 190.495 114.453 187.638 114.941 184.79C118.52 183.337 121.975 181.459 124.791 178.78C133.298 171.129 139.405 161.314 145.046 151.477V151.481ZM117.479 103.655C121.039 105.149 124.494 106.876 128.059 108.343C127.771 112.011 127.839 115.725 127.21 119.361C126.808 121.785 125.425 123.872 124.147 125.918C123.335 118.177 121.669 110.33 117.479 103.655ZM95.2338 84.421C96.6122 84.339 97.9996 84.2752 99.3871 84.2023L99.6883 84.3481C107.794 88.2121 116.05 91.7572 124.175 95.5848C125.407 95.8536 125.48 96.8151 125.147 97.8449C122.65 97.2252 120.437 95.8901 118.104 94.8648C110.469 91.4063 102.847 87.925 95.2338 84.4255V84.421ZM55.0564 80.0922C66.2657 88.3215 77.5207 96.4733 88.6935 104.753C86.0372 103.955 83.3627 103.24 80.7338 102.37C78.1414 101.563 76.3204 99.4351 74.0292 98.1C70.985 100.337 67.676 102.196 63.9335 102.967C59.7802 97.3846 55.6589 91.7845 51.5467 86.1707C54.1938 85.2412 54.4631 82.4297 55.0564 80.0922ZM75.9096 39.2692C81.0396 35.0953 87.8994 34.1065 94.2891 33.6098C100.008 33.341 105.923 33.8012 111.181 36.239C107.561 36.9498 103.951 37.7108 100.437 38.8272C96.8175 39.8615 93.2576 41.3607 89.442 41.4928C84.8415 41.625 80.2226 40.8822 75.9096 39.2692ZM74.1205 13.9205C79.5152 9.3001 84.8734 4.65232 90.2271 -0.00457764C120.382 25.9957 150.505 52.0278 180.563 78.1374C173.261 78.2194 165.954 78.1465 158.651 78.1784C158.656 82.6211 158.679 87.0593 158.629 91.5111C155.311 88.3716 151.719 84.3845 146.675 84.8265C140.633 85.7561 135.37 89.7978 132.075 94.8511C123.613 90.8914 115.106 87.0092 106.571 83.2226L106.329 83.1269C106.731 82.1518 107.516 81.2632 107.488 80.1514C107.475 75.6039 107.046 71.07 107.014 66.5179C108.488 64.6998 109.98 62.5035 109.332 60.0292C108.429 56.2017 105.713 53.0348 105.234 49.0523C108.511 48.0134 112.075 48.0498 115.234 46.6509C118.867 44.7645 120.724 40.1349 119.35 36.2572C118.638 34.0655 117.004 32.2291 114.941 31.2039C110.701 29.0349 105.941 28.1828 101.245 27.6725C96.9727 22.1726 91.5689 17.2378 84.7821 15.1599C81.3545 13.9843 77.7124 13.9023 74.1251 13.9205H74.1205ZM64.1891 26.6473C69.1 21.9038 76.5075 19.5252 83.1619 21.5803C88.0226 22.8971 91.8017 26.4695 94.8915 30.2789C89.7889 31.1264 84.5676 31.8282 79.8438 34.0518C77.0643 35.3003 74.8097 37.483 71.9252 38.5264C66.4711 40.6544 61.0627 42.8826 55.6087 45.0151C56.4302 38.2029 59.0774 31.3953 64.1891 26.6473ZM0.000183105 78.1419C8.57148 70.6098 17.1793 63.1004 25.9149 55.7551C25.1983 58.7306 24.5548 61.7106 23.9295 64.7089C32.7792 66.4222 40.9535 70.2817 49.3331 73.4349C47.5622 75.9046 46.4623 78.9439 43.9521 80.8212C41.0082 83.136 37.3433 84.1749 33.8199 85.264C29.7213 86.5261 25.7369 88.1301 21.8757 89.9892C21.8894 86.0523 21.8894 82.1199 21.8757 78.1784C14.5869 78.1647 7.29355 78.2285 0.00474716 78.1419H0.000183105ZM125.434 96.2318C128.378 97.4029 131.235 98.7881 134.11 100.114C134.047 100.588 133.919 101.545 133.85 102.023C131.272 100.793 128.588 99.7769 126.037 98.4965C125.886 97.9314 125.589 96.7968 125.439 96.2318H125.434ZM165.082 116.167C167.131 115.023 169.213 115.88 171.098 116.896C170.331 117.27 169.573 117.639 168.82 118.013C167.565 117.407 166.319 116.801 165.082 116.167Z" fill="#FF7B0F"/>
<path fill-rule="evenodd" clip-rule="evenodd" d="M17.4714 30.9761C20.4243 28.6066 24.4863 28.6613 28.06 29.1215C32.1357 29.6866 36.038 31.0763 39.7942 32.7076C41.7932 30.3199 44.9242 29.2628 47.973 29.2765C49.3102 29.6774 50.5471 30.3427 51.8205 30.9077C49.826 35.3004 48.4659 40.0575 48.4339 44.9058C48.37 47.7491 50.579 49.9044 50.9716 52.6475C52.213 57.997 54.1938 63.4604 53.2901 69.015C52.998 71.1885 51.04 72.3869 49.3331 73.4304C40.9534 70.2772 32.7792 66.4223 23.9295 64.7044C24.5594 61.7107 25.1983 58.7261 25.9149 55.7506C26.5219 53.3264 27.138 50.9023 27.6812 48.4599C28.3977 48.4326 29.1234 48.4053 29.84 48.3779C31.1133 47.5577 32.4826 46.8697 33.5414 45.767C31.0449 44.5914 28.6031 43.197 25.9331 42.4406C23.4914 42.3859 22.3549 44.7964 22.4279 46.9152C21.004 50.9114 17.9004 63.9844 9.77637 61.1274C7.83665 60.494 7.87772 58.1611 8.23828 56.5252C9.11458 51.9595 10.2739 47.4484 11.3784 42.9327C12.4692 38.5948 13.8201 33.8787 17.4714 30.967V30.9761ZM70.1589 19.106C76.4755 16.8414 83.705 18.0443 89.2594 21.6942C93.2941 24.173 96.279 27.914 99.1634 31.5821C104.152 31.9284 109.318 32.6302 113.718 35.1409C116.849 37.0091 116.224 42.3358 112.71 43.3793C108.908 44.1585 105.069 44.8055 101.377 46.0358C101.34 48.7333 101.34 51.5175 102.399 54.0601C103.207 56.3475 104.882 58.3296 105.11 60.7993C105.284 62.4443 103.892 63.5424 102.874 64.595C103.052 69.7167 103.33 74.8338 103.467 79.9646C99.8617 81.9194 95.7358 82.4161 91.8381 83.5051C91.7605 84.421 91.6464 85.428 92.3721 86.1434C92.4908 85.3232 92.29 84.5258 92.0937 83.7421C93.148 83.9152 94.1978 84.1476 95.2338 84.4301C102.847 87.9296 110.469 91.4109 118.104 94.8694C120.437 95.8946 122.65 97.2297 125.147 97.8494C125.48 96.8242 125.407 95.8582 124.174 95.5893C116.05 91.7618 107.794 88.2121 99.6883 84.3527C101.993 84.1385 104.261 83.2499 106.566 83.2317C115.106 87.0183 123.609 90.9006 132.075 94.8603C133.006 95.3205 133.942 95.7716 134.891 96.2227C137.068 92.8371 140.87 91.1876 144.311 89.4105C146.821 88.1529 149.993 88.6951 152.011 90.6226C154.065 92.6685 156.264 94.5732 158.127 96.806C160.943 97.5578 163.613 99.1071 164.858 101.859C169.245 103.194 170.271 108.243 170.057 112.248C173.119 113.652 176.346 114.736 179.295 116.395C180.97 117.457 182.508 119.685 181.463 121.676C180.436 123.872 179.628 126.224 178.236 128.22C176.675 129.618 174.265 129.486 172.462 128.648C169.103 127.222 165.876 125.513 162.563 123.991C159.97 126.283 157.273 128.438 154.713 130.762C149.911 135.141 146.657 140.841 143.38 146.373C137.602 156.329 131.833 166.559 123.417 174.579C120.154 177.946 116.032 180.439 111.477 181.596C110.711 185.492 110.103 189.42 109.606 193.357H103.098H102.71H101.272H94.0928H93.2302H72.4911H69.351H66.1927L66.1973 193.352L62.1216 193.357H61.6104H55.4945H54.7962C47.7219 193.352 40.6477 193.348 33.5734 193.37C29.1645 193.735 26.8779 189.01 25.2805 185.624C20.3559 185.665 15.5271 183.578 12.1953 179.969C9.09176 176.52 6.35333 172.41 5.80108 167.698C8.12418 169.393 10.7029 170.742 13.4778 171.549C20.6845 173.759 28.2243 174.538 35.6683 175.54C29.3516 175.85 23.0121 175.59 16.6955 175.914C18.4937 177.313 20.5521 178.397 22.8204 178.771C30.698 180.243 38.7673 179.186 46.6905 180.202C51.7885 181.017 56.7862 182.316 61.8295 183.419C61.6286 182.002 61.4278 180.58 61.2316 179.172C65.1612 181.879 69.0726 184.617 73.2305 186.973L75.6083 188.249C79.6156 190.012 84.4215 192.523 88.7391 190.336C91.4913 188.003 91.8838 184.02 94.0791 181.232C95.9458 178.056 99.4738 174.583 97.9494 170.642C95.0375 166.719 89.5835 166.71 85.2933 165.393C83.6091 164.951 84.0382 162.845 83.6046 161.592C78.9264 162.454 74.5495 164.395 70.0037 165.739C72.1488 166.751 74.303 167.758 76.4162 168.819C71.3957 168.172 66.3616 167.375 61.51 165.867C53.5411 163.31 46.8274 158.079 39.1552 154.871C32.7336 152.219 25.6684 153.286 19.0277 154.343C23.6055 150.26 30.1321 149.936 35.8691 151.149C33.7879 147.79 29.5296 147.367 25.9423 147.535C19.0368 147.909 12.1132 149.567 6.01559 152.885C5.0617 150.055 4.39535 147.057 4.84262 144.063C5.59569 138.057 7.93249 132.357 8.40259 126.297C9.05981 121.503 8.02834 116.623 9.06438 111.861C9.73986 108.735 10.9265 105.719 12.4509 102.907C14.6736 99.0524 18.4709 96.4642 22.2819 94.3408C29.5433 90.4084 37.5578 88.1164 45.5677 86.2619C46.0378 84.8767 46.7544 83.5963 47.9045 82.6758C49.8762 81.0628 50.6019 78.5247 52.1673 76.6018C53.354 75.4535 55.0929 75.2576 56.5945 74.7655C57.0098 72.4461 57.9409 70.1587 57.8998 67.7892C56.7679 61.7426 55.5356 55.7096 54.3398 49.6766C54.0067 47.7628 52.1582 46.332 52.4366 44.2861C52.9797 33.5324 59.7391 22.765 70.1497 19.1106L70.1589 19.106ZM64.1845 26.6518C59.0728 31.3953 56.4256 38.2075 55.6041 45.0197C61.0581 42.8917 66.4665 40.659 71.9251 38.531C74.8096 37.483 77.0643 35.3003 79.8438 34.0564C84.5676 31.8327 89.7889 31.131 94.8915 30.2835C91.8016 26.4741 88.0226 22.9017 83.1573 21.5848C76.5029 19.5343 69.0954 21.9084 64.1845 26.6518ZM75.9004 39.2737C80.2135 40.8868 84.8323 41.6295 89.4329 41.4974C93.2484 41.3652 96.8038 39.8661 100.428 38.8318C103.947 37.7154 107.552 36.9499 111.171 36.2436C105.914 33.8058 99.9987 33.3455 94.2799 33.6144C87.8857 34.1111 81.0304 35.0999 75.9004 39.2737ZM69.2734 44.6597C69.2689 49.2437 69.2962 53.8322 69.2232 58.4208C67.2698 54.3563 65.6359 50.1414 63.7281 46.0586C62.012 47.0155 60.0586 48.2914 59.9354 50.4649C59.657 55.1263 63.2534 58.9676 67.0005 61.2413C65.3985 61.9841 63.0344 62.2757 62.6419 64.3444C61.7062 67.9305 61.1266 71.6032 60.4374 75.2439C59.8852 77.4812 60.9532 79.8279 62.8518 81.0764C67.7719 84.6716 72.7147 88.2258 77.6257 91.8256C72.8243 83.0996 69.205 73.2663 69.5473 63.1779C72.0256 66.4815 74.7412 69.7896 78.5202 71.667C84.4809 74.8338 91.578 74.3052 97.922 72.6922C97.4747 69.5846 97.0183 66.4815 96.5619 63.3739C93.8189 63.1961 91.0714 63.0731 88.3466 62.7405C92.3949 60.9725 96.457 59.2136 100.505 57.4365C98.027 53.855 96.6304 49.6538 96.6167 45.2976C89.4146 47.0109 81.7607 45.4845 75.2843 42.0943C73.2715 42.9191 71.2679 43.7757 69.278 44.6506L69.2734 44.6597ZM55.0518 80.0967C54.4585 82.4389 54.1892 85.2458 51.5421 86.1753C55.6543 91.7891 59.7756 97.3847 63.9289 102.971C67.676 102.201 70.985 100.342 74.0246 98.1046C76.3158 99.4397 78.1368 101.568 80.7292 102.374C83.3581 103.24 86.0327 103.96 88.6889 104.757C77.5161 96.4779 66.2566 88.326 55.0518 80.0967ZM142.595 95.2066C141.112 96.0678 139.154 96.8606 138.752 98.7334C138.086 101.713 137.844 104.78 137.447 107.81C138.839 107.309 140.546 107.181 141.564 105.983C142.673 104.475 142.901 102.497 144.005 100.984C145.68 99.1207 148.081 97.977 149.487 95.8627C150.404 94.4228 148.665 93.1014 147.328 93.0877C145.598 93.393 144.133 94.4456 142.59 95.2111L142.595 95.2066ZM125.434 96.2409C125.585 96.806 125.881 97.9406 126.032 98.5056C128.583 99.786 131.267 100.798 133.846 102.032C133.914 101.559 134.047 100.602 134.106 100.123C131.231 98.7927 128.373 97.412 125.43 96.2409H125.434ZM148.209 98.8975C146.666 100.46 144.635 101.837 144.014 104.056C143.759 106.99 144.028 109.943 144.106 112.886C145.388 112.622 147.223 113.005 147.962 111.633C148.921 109.478 149.071 107.022 150.203 104.921C151.153 102.912 152.937 101.436 153.877 99.426C153.8 98.0773 152.782 96.9336 151.513 96.5736C150.153 96.9199 149.222 98.018 148.209 98.902V98.8975ZM106.881 97.2571C107.922 98.656 109.159 99.868 110.491 100.989C116.717 107.787 119.305 117.047 120.071 126.041C121.701 127.618 123.686 128.775 125.466 130.179C127.342 128.142 129.19 125.991 130.204 123.38C131.956 119.179 131.564 114.527 131.961 110.084C130.665 109.487 129.368 108.899 128.058 108.348C124.494 106.881 121.039 105.154 117.479 103.659C115.375 102.219 112.842 101.6 110.683 100.274C109.401 99.2802 108.241 98.1456 106.881 97.2571ZM150.865 107.719C150.012 110.412 149.87 113.255 149.56 116.044C150.911 116.071 152.741 116.678 153.672 115.292C154.895 113.337 155.251 110.986 156.278 108.936C157.415 106.899 159.569 105.623 160.532 103.468C160.103 101.973 158.455 101.276 157.013 101.322C154.379 102.711 151.782 104.771 150.861 107.719H150.865ZM155.562 116.163C157.059 116.536 158.971 117.133 159.989 115.543C161.381 113.588 163.229 112.098 165.584 111.478C165.466 109.624 165.735 107.209 163.886 106.102C159.085 107.004 156.643 111.829 155.562 116.163ZM135.909 111.857C135.694 115.721 136.214 119.767 134.663 123.43C133.312 127.244 130.916 130.598 128.068 133.451C119.104 135.56 115.653 161.396 113.864 170.214C119.359 168.081 123.878 164.058 127.515 159.505C135.151 150.073 140.29 138.704 149.208 130.311C147.949 130.07 146.698 129.851 145.448 129.609C149.103 126.784 152.869 124.073 156.137 120.797C153.535 119.949 150.71 121.038 148.186 119.89C146.853 119.457 146.096 118.222 145.247 117.211C143.535 116.969 141.495 116.791 140.582 115.083C139.665 113.237 137.629 112.681 135.904 111.861L135.909 111.857ZM165.078 116.176C166.314 116.81 167.56 117.416 168.816 118.022C169.569 117.648 170.326 117.279 171.093 116.905C169.208 115.885 167.127 115.033 165.078 116.176ZM170.828 118.008C169.961 118.345 169.318 119.138 169.089 120.04C168.441 122.369 171.732 124.606 173.571 122.861C176.173 121.125 173.663 116.705 170.828 118.008Z" fill="#11182A"/>
<path fill-rule="evenodd" clip-rule="evenodd" d="M103.381 177.787L99.7887 176.005L99.0631 176.734C98.9079 174.096 97.2329 169.849 95.1151 168.268L92.6916 167.074C91.1262 161.556 84.7593 160.69 79.7799 162.686L87.0368 152.402C85.3983 150.164 85.0331 147.116 86.3521 144.464L87.4384 142.281C89.3188 138.499 93.9331 136.95 97.7212 138.827L104.54 142.208C106.79 141.57 109.182 141.789 111.29 142.833L119.131 146.719C121.24 147.763 122.86 149.535 123.709 151.709C124.667 152.183 126.511 152.98 127.333 153.723C129.482 155.254 131.103 157.377 131.943 159.893L132.481 161.497L134.914 162.704C138.15 164.308 140.203 167.475 140.491 170.911L145.009 173.075C147.597 174.356 148.652 177.495 147.369 180.079C146.087 182.658 142.942 183.715 140.359 182.434L135.84 180.27C132.919 182.116 129.154 182.398 125.918 180.794L123.485 179.587L122.317 179.978C123.344 183.136 121.199 186.444 117.876 186.791L114.417 193.749C112.532 197.531 107.922 199.08 104.134 197.203C100.341 195.321 98.7892 190.718 100.674 186.936L104.134 179.978C103.728 179.313 103.476 178.566 103.394 177.791L103.381 177.787Z" fill="#11182A"/>
<path d="M109.131 176.165L112.413 177.791L123.271 155.96L123.832 156.238C123.955 156.298 124.056 156.384 124.17 156.452C124.234 156.475 124.302 156.475 124.362 156.503C124.517 156.58 124.649 156.689 124.754 156.812C126.324 157.856 127.52 159.346 128.132 161.159L128.424 162.034L121.459 176.037L120.583 176.333C119.003 176.862 117.347 176.912 115.772 176.511L114.595 178.876L117.876 180.502C118.479 180.803 118.725 181.532 118.428 182.134C118.127 182.735 117.397 182.981 116.794 182.685L115.699 182.143L110.811 191.967C109.912 193.771 107.712 194.51 105.905 193.616C104.097 192.719 103.353 190.523 104.252 188.718L109.14 178.894L108.045 178.352C107.443 178.051 107.196 177.322 107.493 176.72C107.794 176.119 108.524 175.873 109.127 176.169L109.131 176.165Z" fill="#FF7B0F"/>
<path d="M136.306 173.308L145.014 177.372C145.616 177.673 145.863 178.402 145.566 179.008C145.265 179.609 144.535 179.855 143.932 179.559L135.224 175.49C133.481 177.727 130.336 178.511 127.698 177.203L124.416 175.577L129.848 164.664L133.129 166.29C135.767 167.598 137.045 170.569 136.31 173.312L136.306 173.308Z" fill="white"/>
<path d="M91.5917 151.139C89.7843 150.242 89.0449 148.045 89.9395 146.236L91.0257 144.054C91.9249 142.249 94.1247 141.511 95.9321 142.404L103.134 145.977C103.837 146.323 104.636 146.382 105.384 146.132C106.749 145.671 108.209 145.776 109.496 146.414L117.338 150.301C118.625 150.939 119.592 152.042 120.049 153.404C120.245 153.983 120.642 154.434 121.121 154.789L111.304 174.524L107.867 175.144C107.561 175.244 107.224 175.221 106.936 175.08L101.989 172.629C101.87 172.132 101.706 171.622 101.487 171.098C99.4829 166.368 91.9751 161.447 86.6123 159.934L91.9112 152.424C92.217 151.987 92.0664 151.381 91.5871 151.139H91.5917ZM112.34 153.263L107.968 151.094C106.53 150.383 105.444 152.566 106.881 153.276L111.254 155.445C112.691 156.156 113.778 153.974 112.34 153.263ZM100.368 166.377L104.741 168.546C106.178 169.257 107.265 167.074 105.827 166.363L101.455 164.194C100.017 163.483 98.9307 165.666 100.368 166.377ZM98.1685 159.843L111.29 166.345C112.728 167.06 113.814 164.873 112.376 164.162L99.2547 157.66C97.8171 156.945 96.7308 159.132 98.1685 159.843ZM100.341 155.477L113.463 161.98C114.9 162.695 115.987 160.508 114.549 159.797L101.427 153.295C99.9896 152.579 98.9033 154.762 100.341 155.477Z" fill="white"/>
</svg>
