<svg width="56" height="56" viewBox="0 0 56 56" fill="none" xmlns="http://www.w3.org/2000/svg">
<path d="M38.8387 9.03223C33.3606 9.03223 28.9032 13.4896 28.9032 18.9677C28.9032 22.9771 31.2958 26.432 34.7236 28H42.4516C42.5898 28 42.7235 28.0189 42.8535 28.0487C46.3364 26.5024 48.7742 23.0169 48.7742 18.9677C48.7742 13.4896 44.3167 9.03223 38.8387 9.03223Z" fill="#FF7B0F"/>
<path d="M52.3871 9.61845V7.22581H53.2903C54.7843 7.22581 56 6.01006 56 4.51613C56 2.02594 53.9741 0 51.4839 0H26.1935C23.7034 0 21.6774 2.02594 21.6774 4.51613C21.6774 6.01006 22.8932 7.22581 24.3871 7.22581H25.2903V9.61845L23.8551 11.4132C22.7369 12.8114 22.027 14.495 21.7804 16.2581H18.9677C17.1992 16.2581 15.6005 16.9897 14.4516 18.1639V14.4516H17.1613C20.6477 14.4516 23.4839 11.6155 23.4839 8.12903V7.22581H18.9677C15.4813 7.22581 12.6452 10.0619 12.6452 13.5484V14.4516V17.4828C11.1539 15.6366 8.8751 14.4516 6.32258 14.4516H1.80645V15.3548C1.80645 19.8366 5.45368 23.4839 9.93548 23.4839H12.6452V25.9036C10.8676 26.7581 9.54981 28.4335 9.20568 30.4974L9.16232 30.7575C6.48064 31.1035 4.27677 33.2215 3.88658 35.9538C3.77729 36.7134 3.22632 37.3249 2.48206 37.511L2.05213 37.6185C0.844516 37.9201 0 39.0013 0 40.2468V42.0614C0 45.8378 2.83432 48.9693 6.59174 49.345C7.98271 49.4841 9.03226 50.6439 9.03226 52.0421V54.1917C9.03226 55.188 9.84245 55.9982 10.8387 55.9982H14.4516C15.4479 55.9982 16.2581 55.188 16.2581 54.1917V52.3853C16.2581 51.8876 16.6636 51.4821 17.1613 51.4821H26.1935C26.6912 51.4821 27.0968 51.8876 27.0968 52.3853V54.1935C27.0968 55.1898 27.907 56 28.9032 56H32.5161C33.0003 56 33.4546 55.8112 33.796 55.4689C34.1356 55.1275 34.3226 54.6741 34.3208 54.1908C34.3199 53.8874 34.3199 53.0492 34.3208 52.257C34.3217 51.6853 34.4237 51.1208 34.6008 50.5797H38.8387H49.6774H51.4839C53.9741 50.5797 56 48.5538 56 46.0636V42.4507V40.6443V17.6201C56 15.3729 55.2268 13.169 53.8223 11.4132L52.3871 9.61845ZM18.9677 9.03226H21.5862C21.1671 11.0907 19.3417 12.6452 17.1613 12.6452H14.5428C14.9619 10.5867 16.7865 9.03226 18.9677 9.03226ZM9.93548 21.6774C6.75523 21.6774 4.1169 19.3182 3.67703 16.2581H6.32258C9.50284 16.2581 12.1412 18.6173 12.581 21.6774H9.93548ZM23.4839 4.51613C23.4839 3.02219 24.6996 1.80645 26.1935 1.80645H51.4839C52.9778 1.80645 54.1935 3.02219 54.1935 4.51613C54.1935 5.01381 53.788 5.41935 53.2903 5.41935H24.3871C23.8894 5.41935 23.4839 5.01381 23.4839 4.51613ZM18.9677 18.0645H21.5862C21.1671 20.123 19.3417 21.6774 17.1613 21.6774H14.5428C14.9619 19.619 16.7865 18.0645 18.9677 18.0645ZM14.4516 23.4839H17.1613C18.9298 23.4839 20.5285 22.7523 21.6774 21.5781V30.7079H17.0231L16.1199 25.2885H15.3548C15.0477 25.2885 14.7479 25.3165 14.4516 25.359V23.4839ZM33.4663 48.6785C32.8449 49.7668 32.5152 51.0043 32.5143 52.2561C32.5134 53.051 32.5134 53.8937 32.5161 54.1935H28.9032V52.3853C28.9032 50.8914 27.6875 49.6756 26.1935 49.6756H17.1613C15.6674 49.6756 14.4516 50.8914 14.4516 52.3853V54.1917H10.8387V52.0421C10.8387 49.7117 9.09006 47.7797 6.77239 47.5476C3.94077 47.2649 1.80645 44.9057 1.80645 42.0614V40.2468C1.80645 39.8314 2.08826 39.471 2.49019 39.3707L2.92013 39.2632C4.38064 38.8983 5.4609 37.6997 5.67406 36.2094C5.97484 34.1022 7.80658 32.5143 9.93458 32.5143H10.6996L10.9859 30.7955C11.3012 28.905 12.7662 27.4707 14.5988 27.1591L15.4912 32.5152H27.0354H27.0381C29.465 32.5152 31.7475 33.46 33.4645 35.177C35.1834 36.8923 36.129 39.1756 36.129 41.6044C36.129 43.1841 35.7154 44.744 34.9314 46.1151L33.4663 48.6785ZM34.3226 30.7097V28.9032H36.129V30.7097H37.9355V28.9032H39.7419V30.7097H41.5484V28.9032H42.4516C42.9493 28.9032 43.3548 29.3088 43.3548 29.8064V31.6129C43.3548 32.1106 42.9493 32.5161 42.4516 32.5161H38.8387H33.0545C32.3219 32.0293 31.5325 31.6463 30.7097 31.3519V29.8064C30.7097 29.3088 31.1152 28.9032 31.6129 28.9032H32.5161V30.7097H34.3226ZM48.7742 36.129V34.3226H49.6774C50.1751 34.3226 50.5806 34.7281 50.5806 35.2258V37.0323C50.5806 37.5299 50.1751 37.9355 49.6774 37.9355H42.4516H38.8387C38.341 37.9355 37.9355 37.5299 37.9355 37.0323V35.2258C37.9355 34.7281 38.341 34.3226 38.8387 34.3226H39.7419V36.129H41.5484V34.3226H42.4516H43.3548V36.129H45.1613V34.3226H46.9677V36.129H48.7742ZM54.1935 42.4516C54.1935 42.9493 53.788 43.3548 53.2903 43.3548H49.6774H42.4516C41.9539 43.3548 41.5484 42.9493 41.5484 42.4516V40.6452C41.5484 40.1475 41.9539 39.7419 42.4516 39.7419H43.3548V41.5484H45.1613V39.7419H46.9677V41.5484H48.7742V39.7419H49.6774H50.5806V41.5484H52.3871V39.7419H53.2903C53.788 39.7419 54.1935 40.1475 54.1935 40.6452V42.4516ZM38.8387 43.3548C38.4422 43.3548 38.0683 43.4452 37.7277 43.5987C37.8506 42.9412 37.9355 42.2764 37.9355 41.6035C37.9355 40.889 37.865 40.1854 37.7323 39.499C38.071 39.6525 38.444 39.7419 38.8387 39.7419H39.9081C39.807 40.0255 39.7419 40.3272 39.7419 40.6452V42.4516C39.7419 42.7695 39.807 43.0712 39.9081 43.3548H38.8387ZM36.129 35.5925C35.8328 35.1463 35.4923 34.7263 35.1283 34.3226H36.2952C36.1941 34.6062 36.129 34.9079 36.129 35.2258V35.5925ZM36.2952 48.7742H35.4914L36.129 47.6587V47.871C36.129 48.1889 36.1941 48.4906 36.2952 48.7742ZM38.8387 48.7742C38.341 48.7742 37.9355 48.3686 37.9355 47.871V46.0645C37.9355 45.5668 38.341 45.1613 38.8387 45.1613H39.7419V46.9677H41.5484V45.1613H42.4516H43.3548V46.9677H45.1613V45.1613H46.9677V46.9677H48.7742V45.1613H49.6774C50.1751 45.1613 50.5806 45.5668 50.5806 46.0645V47.871C50.5806 48.3686 50.1751 48.7742 49.6774 48.7742H38.8387ZM52.2597 48.6468C52.3347 48.3994 52.3871 48.1428 52.3871 47.871V46.0645C52.3871 45.7466 52.3221 45.4449 52.2209 45.1613H53.2903C53.6083 45.1613 53.9099 45.0963 54.1935 44.9951V46.0645C54.1935 47.2875 53.3743 48.3108 52.2597 48.6468ZM54.1935 38.1017C53.9099 38.0005 53.6083 37.9355 53.2903 37.9355H52.2209C52.3221 37.6519 52.3871 37.3502 52.3871 37.0323V35.2258C52.3871 33.7319 51.1714 32.5161 49.6774 32.5161H44.9951C45.0963 32.2325 45.1613 31.9308 45.1613 31.6129V29.8064C45.1613 28.3125 43.9455 27.0968 42.4516 27.0968H31.6129C30.119 27.0968 28.9032 28.3125 28.9032 29.8064V30.8759C28.2926 30.7711 27.6712 30.7079 27.0399 30.7079C27.039 30.7079 27.0381 30.7079 27.0372 30.7079H23.4839V17.6201C23.4839 15.7812 24.117 13.9783 25.265 12.5413L27.0968 10.2525V7.22581H50.5806V10.2525L52.4124 12.5422C53.5604 13.9783 54.1935 15.7812 54.1935 17.6201V38.1017Z" fill="#2F2F2F"/>
<path d="M27.0968 34.3226V36.129C30.0856 36.129 32.5162 38.5849 32.5162 41.6044H34.3226C34.3226 37.5886 31.0809 34.3226 27.0968 34.3226Z" fill="#2F2F2F"/>
<path d="M9.93545 37.0296C10.4343 37.0296 10.8387 36.6252 10.8387 36.1264C10.8387 35.6275 10.4343 35.2231 9.93545 35.2231C9.43661 35.2231 9.03223 35.6275 9.03223 36.1264C9.03223 36.6252 9.43661 37.0296 9.93545 37.0296Z" fill="#2F2F2F"/>
<path d="M37.9355 16.258H39.742C40.2396 16.258 40.6452 16.6636 40.6452 17.1613H42.4516C42.4516 15.6673 41.2359 14.4516 39.742 14.4516V12.6451H37.9355V14.4516C36.4416 14.4516 35.2258 15.6673 35.2258 17.1613C35.2258 18.6552 36.4416 19.8709 37.9355 19.8709H39.742C40.2396 19.8709 40.6452 20.2765 40.6452 20.7742C40.6452 21.2719 40.2396 21.6774 39.742 21.6774H37.9355C37.4378 21.6774 37.0323 21.2719 37.0323 20.7742H35.2258C35.2258 22.2681 36.4416 23.4839 37.9355 23.4839V25.2903H39.742V23.4839C41.2359 23.4839 42.4516 22.2681 42.4516 20.7742C42.4516 19.2802 41.2359 18.0645 39.742 18.0645H37.9355C37.4378 18.0645 37.0323 17.6589 37.0323 17.1613C37.0323 16.6636 37.4378 16.258 37.9355 16.258Z" fill="#2F2F2F"/>
<path d="M23.4839 34.3226H25.2903V36.129H23.4839V34.3226Z" fill="#2F2F2F"/>
<path d="M19.871 34.3226H21.6774V36.129H19.871V34.3226Z" fill="#2F2F2F"/>
</svg>
