<svg width="58" height="58" viewBox="0 0 58 58" fill="none" xmlns="http://www.w3.org/2000/svg">
<rect width="58" height="58" fill="white"/>
<path d="M43.9678 13.0968H14.0323C13.515 13.0968 13.0968 12.6786 13.0968 12.1613V4.67743C13.0968 4.1601 13.515 3.74194 14.0323 3.74194H43.9678C44.4851 3.74194 44.9033 4.1601 44.9033 4.67743V12.1613C44.9033 12.6786 44.4851 13.0968 43.9678 13.0968Z" fill="#FF7B0F"/>
<path d="M58 44.7012V23.5199C58 20.7715 56.9298 18.1877 54.9859 16.2437L50.9923 12.2502C50.3618 11.6196 49.5311 11.2698 48.6452 11.238V0H9.35484V11.238C8.468 11.2698 7.63729 11.6196 7.00771 12.2502L3.01413 16.2437C1.07019 18.1877 0 20.7715 0 23.5199V44.7012C0 46.2269 0.414419 47.7246 1.20023 49.0325L2.08987 50.5161H0V58H16.8387V50.5161H14.9677V47.0511C16.1932 45.1165 16.8387 42.8901 16.8387 40.5944V39.2903H19.6452V37.4194H16.8387V33.6774C16.8387 31.6137 15.1605 29.9355 13.0968 29.9355C12.412 29.9355 11.7787 30.1338 11.2258 30.4556V1.87097H46.7742V30.4556C46.2213 30.1338 45.588 29.9355 44.9032 29.9355C42.8396 29.9355 41.1613 31.6137 41.1613 33.6774V37.4194H38.3548V39.2903H41.1613V40.5953C41.1613 42.891 41.8068 45.1165 43.0323 47.052V50.5161H41.1613V58H58V50.5161H55.9101L56.7998 49.0334C57.5856 47.7246 58 46.2269 58 44.7012ZM9.35484 36.0966L8.30523 35.047C7.78323 34.525 7.48387 33.8018 7.48387 33.0628V28.4948L9.35484 26.8914V33.6774V36.0966ZM9.35484 24.4264L7.48387 26.0298V23.0653C7.48387 22.3263 7.78323 21.6041 8.30523 21.0811L9.35484 20.0325V24.4264ZM14.9677 56.129H1.87097V52.3871H14.9677V56.129ZM13.0968 31.8065C14.1286 31.8065 14.9677 32.6456 14.9677 33.6774V40.5953C14.9677 42.6169 14.3756 44.5739 13.2539 46.2559L13.0968 46.4907V50.5161H4.27142L2.80365 48.0698C2.19371 47.053 1.87097 45.8883 1.87097 44.7012V23.5199C1.87097 21.271 2.74658 19.1568 4.3369 17.5665L8.33048 13.5729C8.60739 13.296 8.96848 13.1389 9.35484 13.1089V17.3869L6.98245 19.7593C6.09936 20.6424 5.6129 21.8164 5.6129 23.0662V33.0637C5.6129 34.3126 6.09936 35.4876 6.98245 36.3707L9.35484 38.7421V40.2258H11.2258V38.3548V33.6774C11.2258 32.6456 12.0649 31.8065 13.0968 31.8065ZM48.6452 26.8914L50.5161 28.4948V33.0628C50.5161 33.8018 50.2168 34.524 49.6948 35.047L48.6452 36.0966V33.6774V26.8914ZM50.5161 26.0308L48.6452 24.4274V20.0334L49.6948 21.083C50.2168 21.6041 50.5161 22.3272 50.5161 23.0662V26.0308ZM56.129 56.129H43.0323V52.3871H56.129V56.129ZM56.129 44.7012C56.129 45.8883 55.8063 47.053 55.1954 48.0698L53.7286 50.5161H44.9032V46.4907L44.7461 46.255C43.6244 44.573 43.0323 42.616 43.0323 40.5953V33.6774C43.0323 32.6456 43.8714 31.8065 44.9032 31.8065C45.9351 31.8065 46.7742 32.6456 46.7742 33.6774V38.3548V40.2258H48.6452V38.7421L51.0175 36.3697C51.9006 35.4866 52.3871 34.3126 52.3871 33.0628V23.0662C52.3871 21.8174 51.9006 20.6424 51.0175 19.7593L48.6452 17.3869V13.1089C49.0315 13.1389 49.3926 13.296 49.6695 13.5729L53.6631 17.5665C55.2534 19.1568 56.129 21.271 56.129 23.5199V44.7012Z" fill="#2F2F2F"/>
<path d="M34.7457 43.442L37.7505 51.0381L35.047 50.3617L33.7728 52.9119L30.8045 45.4907L29.0664 46.1867L33.582 57.4752L36.0498 52.5414L40.8301 53.736L36.4848 42.7544L34.7457 43.442Z" fill="#2F2F2F"/>
<path d="M24.2272 52.9119L22.953 50.3617L20.2495 51.0381L23.2552 43.4429L21.5161 42.7544L17.1699 53.736L21.9502 52.5414L24.418 57.4752L28.9336 46.1867L27.1954 45.4907L24.2272 52.9119Z" fill="#2F2F2F"/>
<path d="M29 46.7742C27.608 46.7742 26.3123 46.1605 25.4283 45.1062C24.0644 45.2213 22.7088 44.7451 21.7238 43.761C20.7397 42.7769 20.2588 41.427 20.3786 40.0555C19.3233 39.1715 18.7097 37.8759 18.7097 36.4839C18.7097 35.0919 19.3233 33.7962 20.3776 32.9122C20.2569 31.5417 20.7397 30.1918 21.7228 29.2077C22.7079 28.2226 24.0625 27.7408 25.4274 27.8624C26.3123 26.8072 27.608 26.1935 29 26.1935C30.392 26.1935 31.6876 26.8072 32.5717 27.8615C33.9347 27.7408 35.2911 28.2226 36.2762 29.2067C37.2603 30.1909 37.7421 31.5408 37.6214 32.9113C38.6766 33.7962 39.2903 35.0919 39.2903 36.4839C39.2903 37.8759 38.6766 39.1715 37.6223 40.0546C37.7421 41.426 37.2603 42.7759 36.2771 43.7601C35.292 44.7451 33.9347 45.2213 32.5726 45.1053C31.6876 46.1605 30.392 46.7742 29 46.7742Z" fill="#FF7B0F"/>
<path d="M33.6774 36.4839C33.6774 33.9047 31.5791 31.8065 29 31.8065C26.4209 31.8065 24.3226 33.9047 24.3226 36.4839C24.3226 39.063 26.4209 41.1613 29 41.1613C31.5791 41.1613 33.6774 39.063 33.6774 36.4839ZM29 39.2903C27.4527 39.2903 26.1935 38.0312 26.1935 36.4839C26.1935 34.9366 27.4527 33.6774 29 33.6774C30.5473 33.6774 31.8064 34.9366 31.8064 36.4839C31.8064 38.0312 30.5473 39.2903 29 39.2903Z" fill="#2F2F2F"/>
<path d="M44.9032 14.9677H16.8387V16.8387H44.9032V14.9677Z" fill="#2F2F2F"/>
<path d="M44.9033 18.7097H13.0968V20.5806H44.9033V18.7097Z" fill="#2F2F2F"/>
<path d="M41.1613 22.4516H13.0968V24.3226H41.1613V22.4516Z" fill="#2F2F2F"/>
<path d="M44.9032 22.4516H43.0322V24.3226H44.9032V22.4516Z" fill="#2F2F2F"/>
<path d="M14.9678 14.9677H13.0968V16.8387H14.9678V14.9677Z" fill="#2F2F2F"/>
</svg>
