<svg width="58" height="58" viewBox="0 0 58 58" fill="none" xmlns="http://www.w3.org/2000/svg">
<path d="M42.0968 52.3871C36.4231 52.3871 31.8065 47.7704 31.8065 42.0968C31.8065 36.4231 36.4231 31.8065 42.0968 31.8065C47.7704 31.8065 52.3871 36.4231 52.3871 42.0968C52.3871 47.7704 47.7704 52.3871 42.0968 52.3871Z" fill="#FF7B0F"/>
<path d="M24.3226 31.8064H3.74194V22.4516H24.3226V31.8064Z" fill="#FF7B0F"/>
<path d="M18.7097 54.2581H24.3226V41.1613H18.7097V54.2581ZM20.5807 43.0323H22.4516V52.3871H20.5807V43.0323Z" fill="#2F2F2F"/>
<path d="M11.2258 54.258H16.8387V48.6451H11.2258V54.258ZM13.0968 50.5161H14.9677V52.3871H13.0968V50.5161Z" fill="#2F2F2F"/>
<path d="M11.2258 46.7742H16.8387V41.1613H11.2258V46.7742ZM13.0968 43.0323H14.9677V44.9033H13.0968V43.0323Z" fill="#2F2F2F"/>
<path d="M3.74194 54.258H9.35485V48.6451H3.74194V54.258ZM5.61291 50.5161H7.48388V52.3871H5.61291V50.5161Z" fill="#2F2F2F"/>
<path d="M3.74194 46.7742H9.35485V41.1613H3.74194V46.7742ZM5.61291 43.0323H7.48388V44.9033H5.61291V43.0323Z" fill="#2F2F2F"/>
<path d="M11.2258 39.2903H16.8387V33.6774H11.2258V39.2903ZM13.0968 35.5484H14.9677V37.4194H13.0968V35.5484Z" fill="#2F2F2F"/>
<path d="M18.7097 39.2903H24.3226V33.6774H18.7097V39.2903ZM20.5807 35.5484H22.4516V37.4194H20.5807V35.5484Z" fill="#2F2F2F"/>
<path d="M3.74194 39.2903H9.35485V33.6774H3.74194V39.2903ZM5.61291 35.5484H7.48388V37.4194H5.61291V35.5484Z" fill="#2F2F2F"/>
<path d="M42.0968 39.2903C42.612 39.2903 43.0322 39.7106 43.0322 40.2258H44.9032C44.9032 39.008 44.1185 37.9789 43.0322 37.5916V35.5484H41.1613V37.5916C40.0751 37.9789 39.2903 39.008 39.2903 40.2258C39.2903 41.7729 40.5497 43.0323 42.0968 43.0323C42.612 43.0323 43.0322 43.4525 43.0322 43.9678C43.0322 44.483 42.612 44.9032 42.0968 44.9032C41.5815 44.9032 41.1613 44.483 41.1613 43.9678H39.2903C39.2903 45.1855 40.0751 46.2147 41.1613 46.602V48.6452H43.0322V46.602C44.1185 46.2147 44.9032 45.1855 44.9032 43.9678C44.9032 42.4206 43.6439 41.1613 42.0968 41.1613C41.5815 41.1613 41.1613 40.7411 41.1613 40.2258C41.1613 39.7106 41.5815 39.2903 42.0968 39.2903Z" fill="#2F2F2F"/>
<path d="M51.4151 9.56267C51.0382 4.22841 46.5901 0 41.1613 0C37.2979 0 33.9291 2.14229 32.1696 5.29955C31.1674 4.89256 30.089 4.67742 29 4.67742C25.7669 4.67742 22.8773 6.4922 21.4609 9.35484C16.8433 9.38499 13.0968 13.1502 13.0968 17.7742C13.0968 18.0875 13.121 18.4 13.1557 18.7097H2.80645C1.25934 18.7097 0 19.969 0 21.5161V55.1935C0 56.7407 1.25934 58 2.80645 58H25.2581C26.8052 58 28.0645 56.7407 28.0645 55.1935V26.1935H49.5806C54.2224 26.1935 58 22.416 58 17.7742C58 13.7628 55.1766 10.4027 51.4151 9.56267ZM26.1935 55.1935C26.1935 55.7088 25.7733 56.129 25.2581 56.129H2.80645C2.2912 56.129 1.87097 55.7088 1.87097 55.1935V21.5161C1.87097 21.0009 2.2912 20.5806 2.80645 20.5806H25.2581C25.7733 20.5806 26.1935 21.0009 26.1935 21.5161V55.1935ZM49.5806 24.3226H28.0645V21.5161C28.0645 19.969 26.8052 18.7097 25.2581 18.7097H15.0399C14.9956 18.4009 14.9677 18.0885 14.9677 17.7742C14.9677 14.1634 17.9053 11.2258 21.5161 11.2258C21.6545 11.2258 21.792 11.2372 21.9884 11.2509L22.6695 11.2998L22.923 10.6653C23.9261 8.16493 26.3105 6.54839 29 6.54839C29.83 6.54839 30.6513 6.70643 31.4164 7.00973C31.0683 8.0416 30.871 9.14244 30.871 10.2903H32.7419C32.7419 5.64853 36.5195 1.87097 41.1613 1.87097C45.4879 1.87097 49.0595 5.15338 49.5254 9.35758C44.9087 9.38773 41.1613 13.1502 41.1613 17.7742H43.0323C43.0323 14.1634 45.9698 11.2258 49.5806 11.2258C53.1915 11.2258 56.129 14.1634 56.129 17.7742C56.129 21.385 53.1915 24.3226 49.5806 24.3226Z" fill="#2F2F2F"/>
<path d="M49.5806 13.0968V14.9678C51.1277 14.9678 52.3871 16.2271 52.3871 17.7742C52.3871 19.3213 51.1277 20.5807 49.5806 20.5807V22.4516C52.1596 22.4516 54.258 20.3532 54.258 17.7742C54.258 15.1952 52.1596 13.0968 49.5806 13.0968Z" fill="#2F2F2F"/>
<path d="M41.1613 3.74194C37.5504 3.74194 34.6129 6.67949 34.6129 10.2903H36.4839C36.4839 7.71135 38.5823 5.61291 41.1613 5.61291V3.74194Z" fill="#2F2F2F"/>
</svg>
