<svg width="166" height="77" viewBox="0 0 166 77" fill="none" xmlns="http://www.w3.org/2000/svg">
<path fill-rule="evenodd" clip-rule="evenodd" d="M22.4292 30.5409C22.6386 30.8333 30.9779 37.3207 30.9779 37.3207L33.7441 31.4624L38.6891 29.9562C38.6891 29.9562 38.9818 25.6448 39.1078 25.2691C39.2338 24.8917 39.9045 23.428 39.8619 23.0931C39.8193 22.7582 39.2338 20.7912 39.1504 20.2897C39.067 19.7883 38.8985 17.5271 38.6483 17.1089C38.3963 16.6907 32.3157 13.7013 31.441 13.5932C30.5663 13.4851 26.9147 12.5052 26.37 13.0918C25.8253 13.6765 23.2596 16.1627 22.9296 16.992C22.5996 17.8213 21.8863 19.7883 21.8863 19.7883C21.8863 19.7883 23.1851 22.6767 23.2685 23.2207C23.3519 23.7647 23.4779 25.5633 23.3945 26.0666C23.3111 26.568 22.431 30.5445 22.431 30.5445L22.4292 30.5409Z" fill="white"/>
<path fill-rule="evenodd" clip-rule="evenodd" d="M44.7874 56.2991L47.236 58.8934L48.9766 60.8054C48.9766 60.8054 50.4156 62.2213 50.8024 62.0653C51.1909 61.9094 57.8908 51.901 57.8908 51.901L61.1519 48.5129L63.7176 47.3841L67.1527 49.0781L68.9802 46.732L66.1963 44.4301L65.2826 42.9097C65.2826 42.9097 64.5427 40.7815 64.1523 40.521C63.7602 40.2605 62.2822 38.8269 61.8475 38.6533C61.4128 38.4796 59.5426 37.264 58.9766 36.6544C58.4106 36.0466 56.8031 35.4388 56.8031 35.4388L53.8453 36.7413C53.8453 36.7413 52.7577 38.7383 52.7577 39.3904C52.7577 40.0426 52.236 42.5606 52.1491 42.9965C52.0621 43.4307 51.8882 45.3427 51.8882 45.3427C51.8882 45.3427 51.4961 47.2104 51.3666 47.905C51.2371 48.5997 49.9312 50.4674 49.9312 50.4674C49.9312 50.4674 48.4088 51.38 47.7559 52.1172C47.1029 52.8561 44.7856 56.2991 44.7856 56.2991H44.7874Z" fill="white"/>
<path fill-rule="evenodd" clip-rule="evenodd" d="M2.34398 59.4498C1.58102 61.2909 1.8933 63.2508 2.25881 65.216C3.40679 66.6318 4.55655 68.0477 5.70453 69.4635C5.70453 69.4635 12.0868 71.9284 12.7841 72.0224C13.4831 72.1163 19.8175 72.6266 21.0275 72.9988C22.2394 73.3709 29.1326 74.3012 29.1326 74.3012C30.4297 74.3171 31.7285 74.3331 33.0255 74.349C34.413 73.9929 35.8023 73.6349 37.1898 73.2787C37.1898 73.2787 38.3538 70.0696 38.588 69.7435C38.8204 69.4175 38.2154 65.6962 38.2154 65.6962C38.2154 65.6962 34.2569 60.2065 31.2281 58.904C28.2011 57.6016 23.6358 55.0428 20.1883 54.2064C16.7408 53.3682 11.338 52.9039 10.08 53.3221C8.82201 53.7403 5.09594 55.6488 4.72334 55.927C4.35073 56.207 2.3422 59.4498 2.3422 59.4498H2.34398Z" fill="white"/>
<path fill-rule="evenodd" clip-rule="evenodd" d="M56.3879 58.9093C57.9191 56.3115 59.3457 53.5525 61.6736 51.5554C61.6896 59.4338 61.6736 67.3123 61.6789 75.1907C55.8467 75.196 50.0181 75.1872 44.1859 75.1925C44.3314 74.0814 44.4947 72.9704 44.6845 71.8628C46.0756 71.2976 47.4187 70.5675 48.5135 69.5255C51.8208 66.5503 54.1949 62.7333 56.3879 58.9075V58.9093ZM45.671 40.3101C47.055 40.8913 48.3982 41.5629 49.7839 42.1335C49.6721 43.56 49.6987 45.0042 49.4539 46.4183C49.2977 47.361 48.7601 48.1726 48.2633 48.9682C47.9475 45.9575 47.2999 42.9061 45.671 40.3101ZM37.023 32.8303C37.5588 32.7984 38.0982 32.7736 38.6376 32.7453L38.7547 32.802C41.9059 34.3047 45.1157 35.6833 48.274 37.1718C48.753 37.2764 48.7814 37.6503 48.6519 38.0507C47.6813 37.8097 46.8208 37.2905 45.9141 36.8918C42.9457 35.5469 39.9826 34.193 37.023 32.8321V32.8303ZM21.4037 31.1469C25.7614 34.3472 30.1369 37.5174 34.4804 40.7371C33.4478 40.427 32.408 40.1488 31.386 39.8104C30.3782 39.4967 29.6702 38.6692 28.7795 38.15C27.5961 39.02 26.3097 39.743 24.8547 40.0425C23.2401 37.8718 21.6379 35.6939 20.0392 33.5108C21.0683 33.1493 21.173 32.056 21.4037 31.1469ZM29.5105 15.2713C31.5049 13.6481 34.1717 13.2636 36.6557 13.0704C38.8789 12.9659 41.1785 13.1449 43.2225 14.0929C41.8154 14.3693 40.412 14.6653 39.0457 15.0994C37.6387 15.5017 36.2547 16.0847 34.7714 16.1361C32.9829 16.1874 31.1873 15.8986 29.5105 15.2713ZM28.815 5.4135C30.9123 3.61666 32.9953 1.80919 35.0766 -0.00181961C46.7995 10.1094 58.51 20.233 70.1956 30.3867C67.3567 30.4186 64.5161 30.3903 61.6772 30.4027C61.6789 32.1304 61.6878 33.8563 61.6683 35.5876C60.3783 34.3667 58.982 32.8162 57.0213 32.9881C54.6721 33.3495 52.6264 34.9213 51.3453 36.8865C48.0557 35.3466 44.7484 33.8369 41.4304 32.3643L41.3364 32.3271C41.4925 31.9479 41.7977 31.6023 41.787 31.1699C41.7817 29.4015 41.6149 27.6383 41.6025 25.868C42.1756 25.161 42.7558 24.3069 42.5039 23.3447C42.1526 21.8562 41.0968 20.6246 40.9105 19.0758C42.1845 18.6718 43.5702 18.686 44.7981 18.142C46.2104 17.4084 46.9326 15.608 46.3985 14.1C46.1217 13.2476 45.4865 12.5335 44.6845 12.1348C43.0362 11.2913 41.1856 10.96 39.3598 10.7615C37.699 8.62265 35.5982 6.70354 32.9598 5.89549C31.6273 5.43831 30.2114 5.40641 28.8168 5.4135H28.815ZM24.9541 10.3628C26.8633 8.5181 29.743 7.5931 32.3299 8.39228C34.2196 8.9044 35.6887 10.2937 36.8899 11.7751C34.9062 12.1047 32.8764 12.3776 31.04 13.2423C29.9594 13.7279 29.0829 14.5767 27.9616 14.9825C25.8413 15.81 23.7387 16.6765 21.6184 17.5058C21.9378 14.8566 22.9669 12.2092 24.9541 10.3628ZM9.15527e-05 30.3885C3.33226 27.4593 6.67862 24.539 10.0747 21.6825C9.7961 22.8396 9.54592 23.9985 9.30284 25.1645C12.7432 25.8308 15.921 27.3317 19.1787 28.558C18.4903 29.5184 18.0626 30.7004 17.0868 31.4304C15.9423 32.3306 14.5176 32.7346 13.1478 33.1582C11.5544 33.649 10.0055 34.2728 8.5044 34.9958C8.50972 33.4647 8.50972 31.9355 8.5044 30.4027C5.67081 30.3973 2.83545 30.4222 0.00186587 30.3885H9.15527e-05ZM48.7637 37.4234C49.9081 37.8789 51.0188 38.4175 52.1366 38.9332C52.1118 39.1175 52.0621 39.4896 52.0355 39.6757C51.033 39.1972 49.9897 38.8021 48.9979 38.3041C48.9393 38.0844 48.824 37.6432 48.7654 37.4234H48.7637ZM64.1772 45.1761C64.9738 44.7313 65.7829 45.0644 66.5157 45.4596C66.2176 45.6049 65.9231 45.7484 65.6303 45.8937C65.1424 45.6581 64.658 45.4224 64.1772 45.1761Z" fill="#FF7B0F"/>
<path fill-rule="evenodd" clip-rule="evenodd" d="M6.79219 12.0463C7.94017 11.1248 9.51932 11.1461 10.9086 11.325C12.4931 11.5448 14.0101 12.0852 15.4704 12.7196C16.2475 11.7911 17.4647 11.38 18.65 11.3853C19.1698 11.5412 19.6507 11.7999 20.1457 12.0197C19.3703 13.7279 18.8416 15.5779 18.8292 17.4633C18.8043 18.5691 19.6631 19.4073 19.8157 20.474C20.2983 22.5544 21.0684 24.6791 20.717 26.8392C20.6035 27.6844 19.8423 28.1505 19.1787 28.5562C15.9211 27.33 12.7433 25.8309 9.30285 25.1628C9.54771 23.9986 9.79611 22.8379 10.0747 21.6808C10.3107 20.7381 10.5502 19.7953 10.7613 18.8455C11.0399 18.8349 11.322 18.8243 11.6006 18.8136C12.0956 18.4947 12.6279 18.2271 13.0396 17.7983C12.069 17.3411 11.1198 16.7988 10.0818 16.5047C9.13252 16.4834 8.69071 17.4208 8.7191 18.2448C8.16551 19.7989 6.95898 24.8828 3.80069 23.7718C3.04661 23.5255 3.06258 22.6182 3.20275 21.982C3.54342 20.2064 3.99409 18.4521 4.42348 16.6961C4.84754 15.0091 5.37274 13.175 6.79219 12.0427V12.0463ZM27.2749 7.43012C29.7306 6.54942 32.5411 7.01723 34.7004 8.43663C36.2689 9.40061 37.4293 10.8554 38.5507 12.2819C40.49 12.4166 42.4986 12.6895 44.209 13.6659C45.4262 14.3924 45.1831 16.4639 43.8169 16.8697C42.3389 17.1727 40.8467 17.4244 39.4112 17.9028C39.3971 18.9519 39.3971 20.0346 39.8087 21.0234C40.1227 21.9129 40.7739 22.6837 40.8626 23.6442C40.9301 24.2839 40.3889 24.7109 39.9932 25.1203C40.0624 27.112 40.1707 29.102 40.2239 31.0973C38.8222 31.8575 37.2182 32.0507 35.7029 32.4742C35.6728 32.8304 35.6284 33.222 35.9105 33.5002C35.9566 33.1812 35.8786 32.8711 35.8023 32.5664C36.2122 32.6337 36.6202 32.7241 37.023 32.8339C39.9826 34.1948 42.9457 35.5487 45.9141 36.8936C46.8208 37.2924 47.6813 37.8116 48.6519 38.0526C48.7814 37.6538 48.753 37.2782 48.274 37.1736C45.1157 35.6851 41.9059 34.3047 38.7547 32.8038C39.6508 32.7205 40.5326 32.375 41.4286 32.3679C44.7484 33.8404 48.054 35.3502 51.3453 36.8901C51.7073 37.0691 52.071 37.2445 52.4401 37.4199C53.2864 36.1033 54.7644 35.4618 56.1023 34.7708C57.0781 34.2817 58.3113 34.4925 59.0955 35.2421C59.894 36.0378 60.7492 36.7785 61.4731 37.6468C62.5679 37.9391 63.6058 38.5416 64.0902 39.6119C65.7953 40.1311 66.1946 42.0946 66.1112 43.6522C67.3018 44.198 68.5562 44.6197 69.7024 45.2647C70.3536 45.6776 70.9515 46.5441 70.5452 47.3185C70.146 48.1726 69.8319 49.087 69.2908 49.8631C68.6839 50.4071 67.7471 50.3558 67.0462 50.0297C65.7403 49.4751 64.4859 48.8105 63.1978 48.2187C62.1899 49.11 61.1413 49.9482 60.1459 50.8519C58.2793 52.5548 57.0143 54.7717 55.7403 56.9229C53.494 60.7948 51.2513 64.773 47.9794 67.8918C46.7108 69.2013 45.1086 70.1706 43.3378 70.6207C43.0397 72.1358 42.8037 73.6633 42.6103 75.1943H40.0802H39.9293H39.3704H36.5794H36.2441H28.1816H26.9609H25.733L25.7348 75.1925L24.1503 75.1943H23.9516H21.574H21.3026C18.5524 75.1925 15.8022 75.1908 13.052 75.1996C11.338 75.3414 10.4491 73.5038 9.82805 72.1872C7.91356 72.2031 6.03633 71.3915 4.74108 69.9881C3.53454 68.6466 2.46995 67.0483 2.25526 65.216C3.15839 65.8752 4.16088 66.3997 5.23966 66.7134C8.04131 67.5728 10.9725 67.8758 13.8664 68.2657C11.4107 68.3862 8.94621 68.2852 6.49056 68.411C7.18964 68.955 7.98986 69.3767 8.87169 69.522C11.9342 70.0944 15.0712 69.6833 18.1514 70.0784C20.1333 70.3956 22.0762 70.9007 24.0368 71.3295C23.9587 70.7784 23.8806 70.2255 23.8043 69.678C25.332 70.7305 26.8526 71.7955 28.469 72.7117L29.3934 73.2078C30.9513 73.8936 32.8197 74.87 34.4982 74.0194C35.5681 73.1122 35.7207 71.5634 36.5741 70.4789C37.2998 69.2438 38.6714 67.8935 38.0787 66.3607C36.9467 64.835 34.8264 64.8315 33.1586 64.3194C32.5038 64.1475 32.6706 63.3288 32.5021 62.8415C30.6834 63.1764 28.9818 63.9313 27.2146 64.454C28.0485 64.8474 28.886 65.239 29.7075 65.6519C27.7558 65.4003 25.7987 65.0902 23.9126 64.5036C20.8146 63.5095 18.2046 61.4752 15.222 60.2277C12.7255 59.1964 9.97887 59.6111 7.39723 60.0222C9.17687 58.4344 11.7141 58.3086 13.9445 58.78C13.1354 57.474 11.4799 57.3092 10.0853 57.3748C7.40078 57.5201 4.70914 58.1651 2.33865 59.4551C1.96782 58.3547 1.70877 57.1887 1.88265 56.0245C2.17542 53.6889 3.08387 51.4721 3.26662 49.1153C3.52212 47.2512 3.12113 45.3533 3.5239 43.5015C3.7865 42.2859 4.24782 41.1129 4.84044 40.0195C5.70453 38.5204 7.18077 37.5139 8.66232 36.6881C11.4853 35.1588 14.601 34.2675 17.7149 33.5463C17.8976 33.0076 18.1762 32.5096 18.6233 32.1517C19.3898 31.5244 19.672 30.5374 20.2806 29.7896C20.7419 29.343 21.4179 29.2668 22.0016 29.0755C22.1631 28.1735 22.5251 27.2839 22.5091 26.3625C22.0691 24.011 21.59 21.6648 21.1251 19.3187C20.9956 18.5744 20.277 18.018 20.3852 17.2224C20.5964 13.0404 23.2241 8.85306 27.2714 7.43189L27.2749 7.43012ZM24.9523 10.3646C22.9651 12.2093 21.936 14.8585 21.6166 17.5076C23.7369 16.6801 25.8395 15.8118 27.9616 14.9843C29.0829 14.5767 29.9595 13.7279 31.04 13.2441C32.8764 12.3794 34.9063 12.1065 36.8899 11.7769C35.6887 10.2955 34.2196 8.90622 32.3282 8.3941C29.7412 7.59669 26.8615 8.51991 24.9523 10.3646ZM29.507 15.2731C31.1837 15.9004 32.9793 16.1893 34.7679 16.1379C36.2512 16.0865 37.6334 15.5035 39.0422 15.1012C40.4102 14.6671 41.8119 14.3694 43.2189 14.0947C41.1749 13.1467 38.8754 12.9677 36.6522 13.0723C34.1664 13.2654 31.5013 13.6499 29.507 15.2731ZM26.9307 17.3677C26.9289 19.1503 26.9396 20.9348 26.9112 22.7192C26.1518 21.1385 25.5166 19.4994 24.7749 17.9117C24.1078 18.2838 23.3484 18.78 23.3004 19.6252C23.1922 21.438 24.5904 22.9318 26.0471 23.8161C25.4243 24.1049 24.5052 24.2183 24.3526 25.0228C23.9889 26.4174 23.7635 27.8457 23.4956 29.2615C23.2809 30.1316 23.6961 31.0442 24.4342 31.5297C26.3469 32.9278 28.2685 34.31 30.1777 35.7099C28.3111 32.3165 26.9041 28.4925 27.0372 24.5692C28.0006 25.8539 29.0563 27.1404 30.5255 27.8705C32.8427 29.102 35.6018 28.8965 38.0681 28.2692C37.8942 27.0607 37.7168 25.8539 37.5393 24.6454C36.473 24.5763 35.4048 24.5284 34.3456 24.3991C35.9194 23.7115 37.4985 23.0275 39.0724 22.3364C38.1089 20.9436 37.566 19.3098 37.5606 17.6157C34.7608 18.282 31.7852 17.6884 29.2675 16.37C28.485 16.6907 27.7061 17.0239 26.9325 17.3641L26.9307 17.3677ZM21.4019 31.1487C21.1713 32.0596 21.0666 33.1511 20.0375 33.5126C21.6361 35.6958 23.2383 37.8718 24.853 40.0443C26.3097 39.7448 27.5961 39.0219 28.7778 38.1518C29.6685 38.671 30.3764 39.4985 31.3842 39.8122C32.4062 40.1489 33.446 40.4288 34.4786 40.7389C30.1351 37.5192 25.7579 34.349 21.4019 31.1487ZM55.4351 37.0248C54.8585 37.3597 54.0973 37.668 53.9411 38.3963C53.6821 39.5552 53.588 40.7478 53.4337 41.9262C53.9748 41.7313 54.6384 41.6817 55.0341 41.2156C55.4653 40.6291 55.554 39.86 55.9834 39.2717C56.6345 38.547 57.5678 38.1022 58.1143 37.28C58.471 36.72 57.795 36.2061 57.2751 36.2008C56.6026 36.3195 56.0331 36.7288 55.4333 37.0266L55.4351 37.0248ZM48.7637 37.427C48.8222 37.6468 48.9376 38.088 48.9961 38.3077C49.988 38.8057 51.0313 39.1991 52.0337 39.6793C52.0604 39.495 52.1118 39.1229 52.1349 38.9368C51.0171 38.4194 49.9063 37.8824 48.7619 37.427H48.7637ZM57.6175 38.4601C57.0178 39.0679 56.2282 39.6031 55.9869 40.4661C55.8876 41.6072 55.9922 42.7555 56.0224 43.9003C56.521 43.7975 57.2343 43.9463 57.5217 43.4129C57.8943 42.5748 57.9529 41.6196 58.3929 40.8027C58.762 40.0213 59.4557 39.4471 59.8212 38.6657C59.7911 38.1412 59.3954 37.6964 58.9021 37.5564C58.3734 37.6911 58.0114 38.1181 57.6175 38.4619V38.4601ZM41.5511 37.8222C41.9556 38.3662 42.4365 38.8376 42.9546 39.2735C45.3747 41.9174 46.3808 45.5181 46.6788 49.0161C47.3123 49.6292 48.0841 50.0793 48.7761 50.6251C49.5053 49.833 50.2239 48.9966 50.6178 47.9812C51.2992 46.3474 51.1466 44.5382 51.301 42.8105C50.797 42.5783 50.2931 42.3497 49.7839 42.1353C48.3982 41.5647 47.055 40.8931 45.671 40.3119C44.8531 39.7519 43.8683 39.5109 43.0291 38.9953C42.5305 38.609 42.0798 38.1677 41.5511 37.8222ZM58.6502 41.8908C58.3184 42.938 58.2634 44.0438 58.1427 45.1283C58.6679 45.1389 59.3794 45.3746 59.7414 44.8359C60.2169 44.0757 60.3553 43.1613 60.7545 42.3639C61.1963 41.5718 62.0338 41.0756 62.4082 40.2375C62.2414 39.6562 61.6009 39.3851 61.0402 39.4028C60.0164 39.9433 59.0068 40.7443 58.6484 41.8908H58.6502ZM60.4759 45.1743C61.0579 45.3196 61.8014 45.5518 62.197 44.9333C62.7382 44.1731 63.4568 43.5937 64.3723 43.3527C64.3262 42.6315 64.4309 41.6923 63.7123 41.2617C61.8457 41.6126 60.8965 43.4891 60.4759 45.1743ZM52.8357 43.4998C52.7523 45.0025 52.9546 46.576 52.3513 48.0007C51.8261 49.4839 50.8946 50.7881 49.7875 51.8974C46.3027 52.7179 44.9613 62.7653 44.2658 66.1942C46.4021 65.3648 48.1586 63.8001 49.5728 62.0299C52.5412 58.3618 54.5391 53.9406 58.0061 50.6765C57.5164 50.5826 57.0302 50.4975 56.5441 50.4036C57.9653 49.3049 59.4291 48.2506 60.6995 46.9765C59.6882 46.6469 58.5898 47.0704 57.6087 46.6239C57.0905 46.4555 56.796 45.9753 56.466 45.5819C55.8006 45.488 55.0075 45.4189 54.6526 44.7544C54.296 44.0367 53.5047 43.8205 52.834 43.5015L52.8357 43.4998ZM64.1754 45.1797C64.6562 45.426 65.1406 45.6617 65.6286 45.8973C65.9213 45.752 66.2159 45.6085 66.5139 45.4632C65.7812 45.0662 64.9721 44.7349 64.1754 45.1797ZM66.411 45.892C66.0739 46.0231 65.8237 46.3315 65.735 46.6823C65.4831 47.5878 66.7624 48.4579 67.4774 47.7792C68.4888 47.1041 67.5129 45.3852 66.411 45.892Z" fill="#11182A"/>
<path d="M83.9093 30.8599C83.5651 30.8599 83.3433 30.6986 83.2457 30.3744L79.9455 20.0346L79.9136 19.8893C79.9136 19.8024 79.9491 19.7245 80.0183 19.6553C80.0892 19.5845 80.1726 19.5508 80.2684 19.5508H82.2752C82.426 19.5508 82.552 19.5933 82.6549 19.6802C82.7578 19.767 82.8252 19.8627 82.8572 19.9708L85.1531 27.4346L87.4331 19.9708C87.4651 19.8627 87.5325 19.7652 87.6354 19.6802C87.7383 19.5951 87.8643 19.5508 88.0151 19.5508H90.0378C90.1248 19.5508 90.2028 19.5862 90.272 19.6553C90.343 19.7262 90.3767 19.8024 90.3767 19.8893L90.3448 20.0346L87.0446 30.3744C86.947 30.6969 86.727 30.8599 86.381 30.8599H83.9058H83.9093ZM95.7334 31.0211C94.7096 31.0211 93.8295 30.8705 93.0968 30.5693C92.364 30.268 91.8104 29.8729 91.4378 29.382C91.0652 28.8912 90.87 28.356 90.8469 27.7748C90.8469 27.6897 90.8824 27.61 90.9516 27.5409C91.0226 27.4718 91.106 27.4363 91.2018 27.4363H93.2405C93.37 27.4363 93.4747 27.4611 93.5563 27.509C93.6361 27.5568 93.7213 27.6313 93.8065 27.7269C93.9467 28.0069 94.172 28.2391 94.486 28.4216C94.7983 28.6041 95.2135 28.6962 95.7316 28.6962C96.3455 28.6962 96.8157 28.5988 97.1386 28.4056C97.4616 28.2107 97.623 27.9484 97.623 27.6135C97.623 27.3761 97.5396 27.1829 97.3729 27.0323C97.2061 26.8817 96.9435 26.747 96.5886 26.6283C96.232 26.5096 95.705 26.3749 95.0024 26.2243C93.7089 25.9549 92.7401 25.5598 92.0996 25.037C91.4573 24.5143 91.1361 23.7682 91.1361 22.7989C91.1361 22.1415 91.3189 21.555 91.6862 21.0375C92.0535 20.5201 92.5769 20.1161 93.2547 19.8255C93.9342 19.5349 94.7273 19.3895 95.6322 19.3895C96.5709 19.3895 97.3853 19.5508 98.0755 19.8751C98.7657 20.1976 99.2909 20.6052 99.6529 21.0942C100.015 21.5851 100.206 22.0671 100.228 22.5402C100.228 22.6377 100.196 22.7174 100.13 22.783C100.066 22.8468 99.9847 22.8804 99.8871 22.8804H97.7526C97.623 22.8804 97.5184 22.8592 97.4367 22.8166C97.3551 22.7741 97.2824 22.7032 97.2185 22.6058C97.1546 22.3577 96.979 22.1486 96.6933 21.9749C96.4076 21.8031 96.0545 21.7162 95.634 21.7162C95.1479 21.7162 94.777 21.8013 94.518 21.9749C94.2589 22.1468 94.1294 22.4002 94.1294 22.7351C94.1294 22.962 94.2021 23.1498 94.3476 23.3004C94.4931 23.451 94.7309 23.5893 95.0591 23.7115C95.3874 23.8356 95.8594 23.9614 96.475 24.0907C97.4775 24.2733 98.2778 24.5019 98.8775 24.7765C99.4754 25.0512 99.9155 25.4074 100.196 25.8433C100.476 26.2792 100.616 26.8268 100.616 27.4824C100.616 28.2036 100.409 28.8309 99.9935 29.3643C99.5783 29.8977 99.0017 30.307 98.2636 30.5923C97.5254 30.8776 96.6809 31.0211 95.7316 31.0211H95.7334ZM102.641 30.8599C102.533 30.8599 102.439 30.8191 102.359 30.7394C102.277 30.6579 102.238 30.564 102.238 30.4576V19.9566C102.238 19.8379 102.279 19.7404 102.359 19.666C102.44 19.5916 102.534 19.5526 102.641 19.5526H110.194C110.313 19.5526 110.411 19.5898 110.485 19.666C110.56 19.7422 110.599 19.8379 110.599 19.9566V21.4752C110.599 21.5833 110.561 21.6772 110.485 21.757C110.411 21.8385 110.313 21.8792 110.194 21.8792H105.034V24.0606H109.837C109.956 24.0606 110.054 24.1014 110.128 24.1811C110.203 24.2626 110.242 24.3619 110.242 24.4806V25.8858C110.242 25.9939 110.205 26.0878 110.128 26.1676C110.052 26.2491 109.956 26.2881 109.837 26.2881H105.034V28.5332H110.324C110.442 28.5332 110.538 28.5704 110.615 28.6466C110.689 28.7211 110.728 28.8185 110.728 28.9372V30.4559C110.728 30.564 110.691 30.6579 110.615 30.7376C110.538 30.8174 110.442 30.8581 110.324 30.8581H102.641V30.8599ZM116.795 31.0211C115.771 31.0211 114.891 30.8705 114.158 30.5693C113.425 30.268 112.872 29.8729 112.501 29.382C112.128 28.8912 111.931 28.356 111.91 27.7748C111.91 27.6897 111.945 27.61 112.015 27.5409C112.085 27.4718 112.169 27.4363 112.265 27.4363H114.303C114.433 27.4363 114.538 27.4611 114.619 27.509C114.701 27.5568 114.784 27.6313 114.869 27.7269C115.01 28.0069 115.237 28.2391 115.549 28.4216C115.861 28.6041 116.276 28.6962 116.795 28.6962C117.408 28.6962 117.879 28.5988 118.202 28.4056C118.524 28.2107 118.686 27.9484 118.686 27.6135C118.686 27.3761 118.603 27.1829 118.436 27.0323C118.269 26.8817 118.006 26.747 117.652 26.6283C117.297 26.5096 116.768 26.3749 116.067 26.2243C114.774 25.9549 113.805 25.5598 113.164 25.037C112.522 24.5143 112.201 23.7682 112.201 22.7989C112.201 22.1415 112.384 21.555 112.751 21.0375C113.116 20.5201 113.64 20.1161 114.319 19.8255C114.999 19.5349 115.792 19.3895 116.697 19.3895C117.636 19.3895 118.45 19.5508 119.14 19.8751C119.83 20.1976 120.356 20.6052 120.718 21.0942C121.08 21.5851 121.271 22.0671 121.292 22.5402C121.292 22.6377 121.26 22.7174 121.195 22.783C121.131 22.8468 121.049 22.8804 120.952 22.8804H118.817C118.688 22.8804 118.583 22.8592 118.501 22.8166C118.42 22.7741 118.347 22.7032 118.283 22.6058C118.219 22.3577 118.044 22.1486 117.758 21.9749C117.472 21.8031 117.119 21.7162 116.699 21.7162C116.213 21.7162 115.842 21.8013 115.583 21.9749C115.324 22.1468 115.194 22.4002 115.194 22.7351C115.194 22.962 115.267 23.1498 115.412 23.3004C115.558 23.451 115.796 23.5893 116.124 23.7115C116.454 23.8356 116.924 23.9614 117.54 24.0907C118.542 24.2733 119.344 24.5019 119.942 24.7765C120.54 25.0512 120.98 25.4074 121.26 25.8433C121.541 26.2792 121.681 26.8268 121.681 27.4824C121.681 28.2036 121.473 28.8309 121.058 29.3643C120.643 29.8977 120.066 30.307 119.328 30.5923C118.59 30.8776 117.746 31.0211 116.796 31.0211H116.795ZM124.979 30.8599C124.797 30.8599 124.651 30.8085 124.543 30.7057C124.435 30.6029 124.371 30.4771 124.348 30.3265L122.584 20.0044C122.573 19.9725 122.568 19.9336 122.568 19.891C122.568 19.8042 122.604 19.7262 122.673 19.6571C122.742 19.5862 122.82 19.5526 122.907 19.5526H124.912C125.214 19.5526 125.38 19.6713 125.414 19.907L126.465 26.2065L127.629 22.4906C127.747 22.2 127.925 22.0547 128.163 22.0547H129.327C129.596 22.0547 129.774 22.2 129.861 22.4906L131.025 26.2065L132.075 19.907C132.107 19.6695 132.275 19.5526 132.577 19.5526H134.582C134.68 19.5526 134.763 19.588 134.832 19.6571C134.903 19.728 134.937 19.8042 134.937 19.891L134.921 20.0044L133.159 30.3265C133.138 30.4771 133.07 30.6047 132.957 30.7057C132.843 30.8085 132.7 30.8599 132.527 30.8599H130.991C130.819 30.8599 130.684 30.8174 130.586 30.7305C130.489 30.6437 130.42 30.548 130.377 30.4399L128.743 25.8202L127.109 30.4399C127.011 30.7199 126.812 30.8599 126.511 30.8599H124.974H124.979ZM137.015 30.8599C136.906 30.8599 136.812 30.8191 136.733 30.7394C136.651 30.6579 136.612 30.564 136.612 30.4576V19.9566C136.612 19.8379 136.653 19.7404 136.733 19.666C136.814 19.5916 136.908 19.5526 137.015 19.5526H144.568C144.687 19.5526 144.784 19.5898 144.859 19.666C144.933 19.7422 144.972 19.8379 144.972 19.9566V21.4752C144.972 21.5833 144.935 21.6772 144.859 21.757C144.784 21.8385 144.687 21.8792 144.568 21.8792H139.408V24.0606H144.211C144.33 24.0606 144.428 24.1014 144.502 24.1811C144.579 24.2626 144.616 24.3619 144.616 24.4806V25.8858C144.616 25.9939 144.579 26.0878 144.502 26.1676C144.428 26.2491 144.33 26.2881 144.211 26.2881H139.408V28.5332H144.697C144.816 28.5332 144.912 28.5704 144.988 28.6466C145.063 28.7211 145.102 28.8185 145.102 28.9372V30.4559C145.102 30.564 145.065 30.6579 144.988 30.7376C144.912 30.8174 144.816 30.8581 144.697 30.8581H137.015V30.8599ZM147.35 30.8599C147.242 30.8599 147.148 30.8191 147.068 30.7394C146.986 30.6579 146.946 30.564 146.946 30.4576V19.9566C146.946 19.8379 146.986 19.7404 147.068 19.666C147.148 19.5916 147.244 19.5526 147.35 19.5526H154.903C155.022 19.5526 155.12 19.5898 155.194 19.666C155.271 19.7422 155.308 19.8379 155.308 19.9566V21.4752C155.308 21.5833 155.271 21.6772 155.194 21.757C155.12 21.8385 155.022 21.8792 154.903 21.8792H149.744V24.0606H154.548C154.667 24.0606 154.765 24.1014 154.839 24.1811C154.914 24.2626 154.953 24.3619 154.953 24.4806V25.8858C154.953 25.9939 154.916 26.0878 154.839 26.1676C154.765 26.2491 154.667 26.2881 154.548 26.2881H149.744V28.5332H155.033C155.152 28.5332 155.248 28.5704 155.324 28.6466C155.4 28.7211 155.437 28.8185 155.437 28.9372V30.4559C155.437 30.564 155.4 30.6579 155.324 30.7376C155.248 30.8174 155.152 30.8581 155.033 30.8581H147.35V30.8599ZM160.177 30.8599C160.068 30.8599 159.974 30.8191 159.894 30.7394C159.813 30.6579 159.772 30.564 159.772 30.4576V22.0901H156.892C156.784 22.0901 156.69 22.0494 156.61 21.9696C156.53 21.8881 156.49 21.7942 156.49 21.6861V19.9584C156.49 19.8396 156.53 19.7422 156.61 19.6678C156.692 19.5933 156.786 19.5543 156.892 19.5543H165.595C165.714 19.5543 165.812 19.5916 165.886 19.6678C165.963 19.744 166 19.8396 166 19.9584V21.6861C166 21.8048 165.963 21.9023 165.886 21.9767C165.812 22.0529 165.714 22.0901 165.595 22.0901H162.716V30.4576C162.716 30.5657 162.678 30.6597 162.602 30.7394C162.528 30.8191 162.43 30.8599 162.311 30.8599H160.177Z" fill="#FF7B0F"/>
<path d="M80.9764 64.5923C80.6925 64.5923 80.4459 64.4859 80.2329 64.2751C80.02 64.0642 79.9153 63.8161 79.9153 63.5326V35.9757C79.9153 35.6656 80.0218 35.4105 80.2329 35.212C80.4441 35.0153 80.6925 34.9161 80.9764 34.9161H93.9236C97.49 34.9161 100.143 35.6444 101.883 37.0992C103.624 38.554 104.493 40.6238 104.493 43.3102C104.493 44.7225 104.133 45.9168 103.411 46.8932C102.689 47.8678 101.876 48.582 100.969 49.0338C102.13 49.5708 103.106 50.432 103.899 51.6192C104.692 52.8065 105.088 54.1337 105.088 55.6045C105.088 58.4309 104.154 60.6353 102.286 62.2177C100.418 63.8001 97.7579 64.5923 94.3051 64.5923H80.9764ZM93.0737 46.7018C94.2057 46.7018 95.068 46.4112 95.6624 45.8335C96.2568 45.2541 96.5531 44.4833 96.5531 43.5228C96.5531 42.5907 96.2568 41.8412 95.6624 41.2759C95.068 40.7106 94.2057 40.4271 93.0737 40.4271H87.5556V46.7018H93.0737ZM93.4552 59.0812C94.6156 59.0812 95.5205 58.7428 96.1716 58.0641C96.8228 57.3854 97.1475 56.5667 97.1475 55.6045C97.1475 54.5874 96.8228 53.7457 96.1716 53.0811C95.5205 52.4166 94.6156 52.0853 93.4552 52.0853H87.5556V59.0795H93.4552V59.0812ZM122.277 65.0158C118.287 65.0158 115.167 64.0412 112.918 62.0901C110.668 60.1391 109.543 57.2011 109.543 53.2725V35.9757C109.543 35.6656 109.649 35.4105 109.861 35.212C110.072 35.0153 110.32 34.9161 110.604 34.9161H116.079C116.39 34.9161 116.653 35.0153 116.864 35.212C117.077 35.4105 117.183 35.6639 117.183 35.9757V53.23C117.183 55.0676 117.614 56.4445 118.477 57.3641C119.341 58.2821 120.592 58.7428 122.233 58.7428C123.846 58.7428 125.091 58.2767 125.968 57.3429C126.844 56.4108 127.284 55.0392 127.284 53.2318V35.9775C127.284 35.6674 127.391 35.4122 127.602 35.2138C127.815 35.0171 128.061 34.9178 128.345 34.9178H133.863C134.176 34.9178 134.429 35.0171 134.628 35.2138C134.825 35.4122 134.925 35.6656 134.925 35.9775V53.2743C134.925 57.2029 133.8 60.1427 131.55 62.0919C129.3 64.0429 126.209 65.0175 122.275 65.0175L122.277 65.0158ZM141.633 64.5923C141.349 64.5923 141.103 64.4859 140.89 64.2751C140.677 64.0642 140.572 63.8161 140.572 63.5326V35.9757C140.572 35.6656 140.679 35.4105 140.89 35.212C141.101 35.0153 141.349 34.9161 141.633 34.9161H152.669C156.828 34.9161 160.056 35.9049 162.348 37.8842C164.641 39.8618 165.844 42.7307 165.956 46.491C165.984 47.3096 165.998 48.3994 165.998 49.755C165.998 51.1124 165.984 52.1863 165.956 52.9766C165.814 56.9052 164.648 59.8237 162.453 61.7304C160.26 63.6389 157.07 64.5923 152.881 64.5923H141.631H141.633ZM152.669 58.4876C154.538 58.4876 155.909 58.0428 156.786 57.1515C157.662 56.2619 158.131 54.8408 158.186 52.8915C158.243 52.0729 158.271 51.0132 158.271 49.7125C158.271 48.4118 158.243 47.3663 158.186 46.5743C158.129 44.6817 157.627 43.2818 156.679 42.3781C155.732 41.4744 154.323 41.0207 152.457 41.0207H148.212V58.4876H152.669Z" fill="white"/>
<path fill-rule="evenodd" clip-rule="evenodd" d="M40.1902 69.1393L38.7938 68.4464L38.5117 68.7299C38.4513 67.7039 37.8002 66.0524 36.9769 65.4375L36.0347 64.9732C35.4261 62.8273 32.9509 62.4906 31.0152 63.2668L33.8363 59.2673C33.1994 58.3972 33.0574 57.2117 33.5702 56.1804L33.9925 55.3316C34.7235 53.8608 36.5173 53.2583 37.99 53.9884L40.6408 55.3033C41.5156 55.0552 42.4453 55.1402 43.2651 55.546L46.3133 57.0576C47.1331 57.4634 47.7629 58.1527 48.093 58.9979C48.4656 59.1822 49.1824 59.4923 49.5018 59.7812C50.3375 60.3766 50.9674 61.2024 51.2938 62.1805L51.5032 62.8043L52.4489 63.2739C53.7069 63.8976 54.5054 65.1292 54.6171 66.4653L56.3737 67.307C57.3798 67.8049 57.7896 69.0259 57.291 70.0306C56.7925 71.0336 55.5699 71.4447 54.5657 70.9467L52.8091 70.105C51.6735 70.8227 50.2097 70.9326 48.9517 70.3088L48.006 69.8392L47.5518 69.9916C47.951 71.2196 47.1171 72.5061 45.8254 72.6408L44.4805 75.3467C43.7477 76.8175 41.9556 77.42 40.4829 76.6899C39.0085 75.958 38.4052 74.1683 39.138 72.6975L40.4829 69.9916C40.325 69.7329 40.2274 69.4423 40.1955 69.141L40.1902 69.1393Z" fill="#11182A"/>
<path d="M42.4258 68.5084L43.7015 69.141L47.9226 60.6512L48.1409 60.7593C48.1888 60.7824 48.2278 60.816 48.2722 60.8426C48.297 60.8515 48.3236 60.8515 48.3467 60.8621C48.407 60.8922 48.4585 60.9348 48.4993 60.9826C49.1097 61.3884 49.5745 61.9679 49.8123 62.6731L49.9258 63.0134L47.2182 68.4588L46.8776 68.574C46.2637 68.7795 45.6196 68.799 45.0074 68.6431L44.5497 69.5628L45.8254 70.1954C46.0596 70.3124 46.1554 70.5959 46.0401 70.8298C45.923 71.0637 45.6391 71.1594 45.4049 71.0442L44.979 70.8333L43.0788 74.6538C42.7292 75.3555 41.874 75.6426 41.1714 75.2953C40.4687 74.9462 40.1795 74.0921 40.5291 73.3904L42.4294 69.5699L42.0035 69.359C41.7693 69.242 41.6735 68.9585 41.7888 68.7246C41.9059 68.4907 42.1898 68.395 42.424 68.5102L42.4258 68.5084Z" fill="#FF7B0F"/>
<path d="M52.9901 67.3974L56.3755 68.978C56.6097 69.095 56.7055 69.3785 56.5902 69.6142C56.4731 69.8481 56.1892 69.9438 55.955 69.8286L52.5696 68.2462C51.8918 69.1162 50.6693 69.421 49.6437 68.9125L48.368 68.2798L50.4794 64.0358L51.7552 64.6684C52.7807 65.177 53.2775 66.3324 52.9919 67.3991L52.9901 67.3974Z" fill="white"/>
<path d="M35.6071 58.7764C34.9045 58.4273 34.617 57.5732 34.9648 56.8697L35.3871 56.0209C35.7366 55.3192 36.5919 55.0321 37.2945 55.3795L40.0944 56.7687C40.3676 56.9034 40.6781 56.9264 40.9691 56.829C41.4996 56.65 42.0674 56.6908 42.5678 56.9388L45.616 58.4504C46.1164 58.6985 46.4925 59.1273 46.67 59.6571C46.7463 59.8822 46.9006 60.0576 47.0869 60.1958L43.2704 67.8705L41.9343 68.1115C41.8154 68.1505 41.6841 68.1416 41.5724 68.0867L39.649 67.1333C39.6029 66.9402 39.539 66.7417 39.4538 66.5379C38.6749 64.6986 35.7561 62.7848 33.6713 62.1965L35.7313 59.2762C35.8502 59.106 35.7916 58.8704 35.6053 58.7764H35.6071ZM43.6732 59.6022L41.9734 58.7587C41.4144 58.4823 40.9922 59.3311 41.5511 59.6075L43.2509 60.451C43.8098 60.7274 44.2321 59.8786 43.6732 59.6022ZM39.0191 64.7021L40.7189 65.5456C41.2778 65.822 41.7001 64.9732 41.1412 64.6968L39.4414 63.8533C38.8825 63.5769 38.4602 64.4257 39.0191 64.7021ZM38.1639 62.161L43.2651 64.6897C43.824 64.9679 44.2463 64.1173 43.6873 63.8409L38.5862 61.3122C38.0273 61.034 37.605 61.8846 38.1639 62.161ZM39.0085 60.4634L44.1096 62.9921C44.6685 63.2703 45.0908 62.4197 44.5319 62.1433L39.4308 59.6146C38.8718 59.3364 38.4496 60.1852 39.0085 60.4634Z" fill="white"/>
</svg>
