<svg width="166" height="77" viewBox="0 0 166 77" fill="none" xmlns="http://www.w3.org/2000/svg">
<g clip-path="url(#clip0_8_65)">
<path fill-rule="evenodd" clip-rule="evenodd" d="M22.4292 30.5412C22.6386 30.8336 30.9779 37.321 30.9779 37.321L33.7441 31.4627L38.6891 29.9565C38.6891 29.9565 38.9818 25.6451 39.1078 25.2694C39.2338 24.892 39.9045 23.4283 39.8619 23.0934C39.8193 22.7585 39.2338 20.7915 39.1504 20.29C39.067 19.7885 38.8985 17.5274 38.6483 17.1092C38.3963 16.691 32.3157 13.7016 31.441 13.5935C30.5663 13.4854 26.9147 12.5055 26.37 13.0921C25.8253 13.6768 23.2596 16.163 22.9296 16.9923C22.5996 17.8216 21.8863 19.7885 21.8863 19.7885C21.8863 19.7885 23.1851 22.677 23.2685 23.221C23.3519 23.765 23.4779 25.5636 23.3945 26.0669C23.3111 26.5683 22.431 30.5448 22.431 30.5448L22.4292 30.5412Z" fill="white"/>
<path fill-rule="evenodd" clip-rule="evenodd" d="M44.7874 56.2988L47.236 58.8931L48.9766 60.8051C48.9766 60.8051 50.4156 62.2209 50.8024 62.065C51.1909 61.9091 57.8908 51.9006 57.8908 51.9006L61.1519 48.5125L63.7176 47.3837L67.1527 49.0778L68.9802 46.7316L66.1963 44.4298L65.2826 42.9094C65.2826 42.9094 64.5427 40.7811 64.1523 40.5207C63.7602 40.2602 62.2822 38.8266 61.8475 38.6529C61.4128 38.4793 59.5426 37.2637 58.9766 36.6541C58.4106 36.0463 56.8031 35.4385 56.8031 35.4385L53.8453 36.7409C53.8453 36.7409 52.7577 38.738 52.7577 39.3901C52.7577 40.0422 52.236 42.5603 52.1491 42.9962C52.0621 43.4303 51.8882 45.3424 51.8882 45.3424C51.8882 45.3424 51.4961 47.2101 51.3666 47.9047C51.2371 48.5993 49.9312 50.4671 49.9312 50.4671C49.9312 50.4671 48.4088 51.3797 47.7559 52.1168C47.1029 52.8558 44.7856 56.2988 44.7856 56.2988H44.7874Z" fill="white"/>
<path fill-rule="evenodd" clip-rule="evenodd" d="M2.34398 59.4499C1.58102 61.291 1.8933 63.2509 2.25881 65.2161C3.40679 66.6319 4.55655 68.0478 5.70453 69.4636C5.70453 69.4636 12.0868 71.9285 12.7841 72.0225C13.4831 72.1164 19.8175 72.6267 21.0275 72.9988C22.2394 73.371 29.1326 74.3013 29.1326 74.3013C30.4297 74.3172 31.7285 74.3332 33.0255 74.3491C34.413 73.9929 35.8023 73.635 37.1898 73.2788C37.1898 73.2788 38.3538 70.0697 38.588 69.7436C38.8204 69.4176 38.2154 65.6963 38.2154 65.6963C38.2154 65.6963 34.2569 60.2066 31.2281 58.9041C28.2011 57.6017 23.6358 55.0429 20.1883 54.2065C16.7408 53.3683 11.338 52.904 10.08 53.3222C8.82201 53.7404 5.09594 55.6489 4.72334 55.9271C4.35073 56.2071 2.3422 59.4499 2.3422 59.4499H2.34398Z" fill="white"/>
<path fill-rule="evenodd" clip-rule="evenodd" d="M56.3879 58.9092C57.9191 56.3114 59.3457 53.5523 61.6736 51.5552C61.6896 59.4337 61.6736 67.3121 61.6789 75.1906C55.8467 75.1959 50.0181 75.187 44.1859 75.1923C44.3314 74.0813 44.4947 72.9702 44.6845 71.8627C46.0756 71.2974 47.4187 70.5674 48.5135 69.5254C51.8208 66.5502 54.1949 62.7332 56.3879 58.9074V58.9092ZM45.671 40.3099C47.055 40.8912 48.3982 41.5628 49.7839 42.1334C49.6721 43.5598 49.6987 45.0041 49.4539 46.4181C49.2977 47.3609 48.7601 48.1724 48.2633 48.9681C47.9475 45.9574 47.2999 42.906 45.671 40.3099ZM37.023 32.8302C37.5588 32.7983 38.0982 32.7735 38.6376 32.7451L38.7547 32.8019C41.9059 34.3045 45.1157 35.6832 48.274 37.1717C48.753 37.2762 48.7814 37.6501 48.6519 38.0506C47.6813 37.8096 46.8208 37.2904 45.9141 36.8917C42.9457 35.5467 39.9826 34.1929 37.023 32.832V32.8302ZM21.4037 31.1468C25.7614 34.3471 30.1369 37.5172 34.4804 40.737C33.4478 40.4269 32.408 40.1487 31.386 39.8102C30.3782 39.4966 29.6702 38.669 28.7795 38.1498C27.5961 39.0199 26.3097 39.7429 24.8547 40.0424C23.2401 37.8716 21.6379 35.6938 20.0392 33.5107C21.0683 33.1492 21.173 32.0558 21.4037 31.1468ZM29.5105 15.2712C31.5049 13.648 34.1717 13.2635 36.6557 13.0703C38.8789 12.9658 41.1785 13.1447 43.2225 14.0928C41.8154 14.3692 40.412 14.6651 39.0457 15.0993C37.6387 15.5015 36.2547 16.0845 34.7714 16.1359C32.9829 16.1873 31.1873 15.8985 29.5105 15.2712ZM28.815 5.41337C30.9123 3.61653 32.9953 1.80906 35.0766 -0.00195312C46.7995 10.1092 58.51 20.2328 70.1956 30.3866C67.3567 30.4185 64.5161 30.3901 61.6772 30.4025C61.6789 32.1303 61.6878 33.8562 61.6683 35.5875C60.3783 34.3666 58.982 32.816 57.0213 32.9879C54.6721 33.3494 52.6264 34.9212 51.3453 36.8864C48.0557 35.3465 44.7484 33.8367 41.4304 32.3642L41.3364 32.327C41.4925 31.9477 41.7977 31.6022 41.787 31.1698C41.7817 29.4013 41.6149 27.6382 41.6025 25.8679C42.1756 25.1609 42.7558 24.3067 42.5039 23.3445C42.1526 21.856 41.0968 20.6245 40.9105 19.0757C42.1845 18.6717 43.5702 18.6859 44.7981 18.1419C46.2104 17.4082 46.9326 15.6079 46.3985 14.0999C46.1217 13.2475 45.4865 12.5334 44.6845 12.1347C43.0362 11.2912 41.1856 10.9598 39.3598 10.7614C37.699 8.62251 35.5982 6.70341 32.9598 5.89536C31.6273 5.43818 30.2114 5.40628 28.8168 5.41337H28.815ZM24.9541 10.3626C26.8633 8.51796 29.743 7.59296 32.3299 8.39215C34.2196 8.90427 35.6887 10.2935 36.8899 11.775C34.9062 12.1046 32.8764 12.3774 31.04 13.2422C29.9594 13.7277 29.0829 14.5765 27.9616 14.9823C25.8413 15.8099 23.7387 16.6764 21.6184 17.5057C21.9378 14.8565 22.9669 12.2091 24.9541 10.3626ZM9.15527e-05 30.3884C3.33226 27.4592 6.67862 24.5389 10.0747 21.6824C9.7961 22.8395 9.54592 23.9984 9.30284 25.1644C12.7432 25.8307 15.921 27.3316 19.1787 28.5578C18.4903 29.5183 18.0626 30.7002 17.0868 31.4303C15.9423 32.3305 14.5176 32.7345 13.1478 33.158C11.5544 33.6489 10.0055 34.2726 8.5044 34.9956C8.50972 33.4646 8.50972 31.9353 8.5044 30.4025C5.67081 30.3972 2.83545 30.422 0.00186587 30.3884H9.15527e-05ZM48.7637 37.4233C49.9081 37.8787 51.0188 38.4174 52.1366 38.9331C52.1118 39.1174 52.0621 39.4895 52.0355 39.6756C51.033 39.1971 49.9897 38.8019 48.9979 38.304C48.9393 38.0843 48.824 37.643 48.7654 37.4233H48.7637ZM64.1772 45.1759C64.9738 44.7312 65.7829 45.0643 66.5157 45.4595C66.2176 45.6048 65.9231 45.7483 65.6303 45.8936C65.1424 45.6579 64.658 45.4222 64.1772 45.1759Z" fill="#FF7B0F"/>
<path fill-rule="evenodd" clip-rule="evenodd" d="M6.79219 12.0458C7.94017 11.1244 9.51932 11.1456 10.9086 11.3246C12.4931 11.5444 14.0101 12.0848 15.4704 12.7192C16.2475 11.7907 17.4647 11.3796 18.65 11.3849C19.1698 11.5408 19.6507 11.7995 20.1457 12.0193C19.3703 13.7275 18.8416 15.5775 18.8292 17.4629C18.8043 18.5687 19.6631 19.4069 19.8157 20.4736C20.2983 22.554 21.0684 24.6786 20.717 26.8387C20.6035 27.684 19.8423 28.15 19.1787 28.5558C15.9211 27.3296 12.7433 25.8305 9.30285 25.1624C9.54771 23.9982 9.79611 22.8375 10.0747 21.6804C10.3107 20.7376 10.5502 19.7949 10.7613 18.8451C11.0399 18.8345 11.322 18.8239 11.6006 18.8132C12.0956 18.4943 12.6279 18.2267 13.0396 17.7978C12.069 17.3407 11.1198 16.7984 10.0818 16.5043C9.13252 16.483 8.69071 17.4204 8.7191 18.2444C8.16551 19.7985 6.95898 24.8824 3.80069 23.7714C3.04661 23.525 3.06258 22.6178 3.20275 21.9816C3.54342 20.206 3.99409 18.4517 4.42348 16.6956C4.84754 15.0087 5.37274 13.1746 6.79219 12.0423V12.0458ZM27.2749 7.4297C29.7306 6.54901 32.5411 7.01682 34.7004 8.43622C36.2689 9.4002 37.4293 10.855 38.5507 12.2815C40.49 12.4162 42.4986 12.6891 44.209 13.6655C45.4262 14.392 45.1831 16.4635 43.8169 16.8693C42.3389 17.1723 40.8467 17.424 39.4112 17.9024C39.3971 18.9514 39.3971 20.0341 39.8087 21.0229C40.1227 21.9125 40.7739 22.6833 40.8626 23.6438C40.9301 24.2835 40.3889 24.7105 39.9932 25.1199C40.0624 27.1116 40.1707 29.1016 40.2239 31.0969C38.8222 31.8571 37.2182 32.0503 35.7029 32.4738C35.6728 32.83 35.6284 33.2216 35.9105 33.4998C35.9566 33.1808 35.8786 32.8707 35.8023 32.5659C36.2122 32.6333 36.6202 32.7236 37.023 32.8335C39.9826 34.1944 42.9457 35.5483 45.9141 36.8932C46.8208 37.2919 47.6813 37.8111 48.6519 38.0521C48.7814 37.6534 48.753 37.2778 48.274 37.1732C45.1157 35.6847 41.9059 34.3043 38.7547 32.8034C39.6508 32.7201 40.5326 32.3746 41.4286 32.3675C44.7484 33.84 48.054 35.3498 51.3453 36.8897C51.7073 37.0687 52.071 37.2441 52.4401 37.4195C53.2864 36.1029 54.7644 35.4614 56.1023 34.7703C57.0781 34.2813 58.3113 34.4921 59.0955 35.2417C59.894 36.0373 60.7492 36.7781 61.4731 37.6463C62.5679 37.9387 63.6058 38.5412 64.0902 39.6115C65.7953 40.1307 66.1946 42.0941 66.1112 43.6518C67.3018 44.1975 68.5562 44.6193 69.7024 45.2643C70.3536 45.6772 70.9515 46.5437 70.5452 47.3181C70.146 48.1722 69.8319 49.0866 69.2908 49.8627C68.6839 50.4067 67.7471 50.3553 67.0462 50.0293C65.7403 49.4746 64.4859 48.8101 63.1978 48.2183C62.1899 49.1096 61.1413 49.9478 60.1459 50.8515C58.2793 52.5544 57.0143 54.7712 55.7403 56.9225C53.494 60.7944 51.2513 64.7726 47.9794 67.8913C46.7108 69.2009 45.1086 70.1702 43.3378 70.6203C43.0397 72.1354 42.8037 73.6628 42.6103 75.1939H40.0802H39.9293H39.3704H36.5794H36.2441H28.1816H26.9609H25.733L25.7348 75.1921L24.1503 75.1939H23.9516H21.574H21.3026C18.5524 75.1921 15.8022 75.1903 13.052 75.1992C11.338 75.341 10.4491 73.5034 9.82805 72.1867C7.91356 72.2027 6.03633 71.3911 4.74108 69.9877C3.53454 68.6462 2.46995 67.0479 2.25526 65.2156C3.15839 65.8748 4.16088 66.3993 5.23966 66.713C8.04131 67.5724 10.9725 67.8754 13.8664 68.2652C11.4107 68.3857 8.94621 68.2847 6.49056 68.4106C7.18964 68.9546 7.98986 69.3763 8.87169 69.5216C11.9342 70.094 15.0712 69.6829 18.1514 70.078C20.1333 70.3952 22.0762 70.9003 24.0368 71.3291C23.9587 70.778 23.8806 70.2251 23.8043 69.6776C25.332 70.7301 26.8526 71.7951 28.469 72.7113L29.3934 73.2074C30.9513 73.8932 32.8197 74.8696 34.4982 74.019C35.5681 73.1117 35.7207 71.563 36.5741 70.4785C37.2998 69.2434 38.6714 67.8931 38.0787 66.3603C36.9467 64.8346 34.8264 64.8311 33.1586 64.3189C32.5038 64.1471 32.6706 63.3284 32.5021 62.8411C30.6834 63.176 28.9818 63.9309 27.2146 64.4536C28.0485 64.847 28.886 65.2386 29.7075 65.6515C27.7558 65.3999 25.7987 65.0898 23.9126 64.5032C20.8146 63.5091 18.2046 61.4748 15.222 60.2273C12.7255 59.196 9.97887 59.6107 7.39723 60.0218C9.17687 58.434 11.7141 58.3082 13.9445 58.7796C13.1354 57.4736 11.4799 57.3088 10.0853 57.3744C7.40078 57.5197 4.70914 58.1647 2.33865 59.4547C1.96782 58.3543 1.70877 57.1883 1.88265 56.0241C2.17542 53.6885 3.08387 51.4717 3.26662 49.1149C3.52212 47.2508 3.12113 45.3529 3.5239 43.5011C3.7865 42.2855 4.24782 41.1124 4.84044 40.0191C5.70453 38.52 7.18077 37.5134 8.66232 36.6877C11.4853 35.1584 14.601 34.2671 17.7149 33.5459C17.8976 33.0072 18.1762 32.5092 18.6233 32.1513C19.3898 31.524 19.672 30.537 20.2806 29.7892C20.7419 29.3426 21.4179 29.2664 22.0016 29.075C22.1631 28.1731 22.5251 27.2835 22.5091 26.3621C22.0691 24.0106 21.59 21.6644 21.1251 19.3182C20.9956 18.574 20.277 18.0176 20.3852 17.2219C20.5964 13.0399 23.2241 8.85264 27.2714 7.43148L27.2749 7.4297ZM24.9523 10.3642C22.9651 12.2089 21.936 14.8581 21.6166 17.5072C23.7369 16.6797 25.8395 15.8114 27.9616 14.9839C29.0829 14.5763 29.9595 13.7275 31.04 13.2437C32.8764 12.379 34.9063 12.1061 36.8899 11.7765C35.6887 10.2951 34.2196 8.9058 32.3282 8.39369C29.7412 7.59627 26.8615 8.5195 24.9523 10.3642ZM29.507 15.2727C31.1837 15.9 32.9793 16.1888 34.7679 16.1375C36.2512 16.0861 37.6334 15.5031 39.0422 15.1008C40.4102 14.6667 41.8119 14.369 43.2189 14.0943C41.1749 13.1463 38.8754 12.9673 36.6522 13.0718C34.1664 13.265 31.5013 13.6495 29.507 15.2727ZM26.9307 17.3672C26.9289 19.1499 26.9396 20.9343 26.9112 22.7188C26.1518 21.1381 25.5166 19.499 24.7749 17.9113C24.1078 18.2834 23.3484 18.7796 23.3004 19.6248C23.1922 21.4376 24.5904 22.9314 26.0471 23.8157C25.4243 24.1045 24.5052 24.2179 24.3526 25.0224C23.9889 26.417 23.7635 27.8453 23.4956 29.2611C23.2809 30.1312 23.6961 31.0438 24.4342 31.5293C26.3469 32.9274 28.2685 34.3096 30.1777 35.7095C28.3111 32.3161 26.9041 28.492 27.0372 24.5688C28.0006 25.8535 29.0563 27.14 30.5255 27.8701C32.8427 29.1016 35.6018 28.8961 38.0681 28.2688C37.8942 27.0602 37.7168 25.8535 37.5393 24.645C36.473 24.5759 35.4048 24.528 34.3456 24.3987C35.9194 23.7111 37.4985 23.0271 39.0724 22.336C38.1089 20.9432 37.566 19.3094 37.5606 17.6153C34.7608 18.2816 31.7852 17.688 29.2675 16.3696C28.485 16.6903 27.7061 17.0235 26.9325 17.3637L26.9307 17.3672ZM21.4019 31.1483C21.1713 32.0591 21.0666 33.1507 20.0375 33.5122C21.6361 35.6953 23.2383 37.8714 24.853 40.0439C26.3097 39.7444 27.5961 39.0214 28.7778 38.1514C29.6685 38.6706 30.3764 39.4981 31.3842 39.8118C32.4062 40.1485 33.446 40.4284 34.4786 40.7385C30.1351 37.5188 25.7579 34.3486 21.4019 31.1483ZM55.4351 37.0244C54.8585 37.3593 54.0973 37.6676 53.9411 38.3959C53.6821 39.5548 53.588 40.7474 53.4337 41.9258C53.9748 41.7309 54.6384 41.6813 55.0341 41.2152C55.4653 40.6287 55.554 39.8596 55.9834 39.2713C56.6345 38.5465 57.5678 38.1018 58.1143 37.2795C58.471 36.7196 57.795 36.2057 57.2751 36.2004C56.6026 36.3191 56.0331 36.7284 55.4333 37.0261L55.4351 37.0244ZM48.7637 37.4266C48.8222 37.6463 48.9376 38.0876 48.9961 38.3073C49.988 38.8053 51.0313 39.1986 52.0337 39.6789C52.0604 39.4946 52.1118 39.1224 52.1349 38.9364C51.0171 38.419 49.9063 37.882 48.7619 37.4266H48.7637ZM57.6175 38.4597C57.0178 39.0675 56.2282 39.6027 55.9869 40.4656C55.8876 41.6068 55.9922 42.7551 56.0224 43.8998C56.521 43.7971 57.2343 43.9459 57.5217 43.4125C57.8943 42.5744 57.9529 41.6192 58.3929 40.8023C58.762 40.0209 59.4557 39.4467 59.8212 38.6653C59.7911 38.1407 59.3954 37.696 58.9021 37.556C58.3734 37.6906 58.0114 38.1177 57.6175 38.4615V38.4597ZM41.5511 37.8218C41.9556 38.3658 42.4365 38.8372 42.9546 39.2731C45.3747 41.9169 46.3808 45.5177 46.6788 49.0157C47.3123 49.6288 48.0841 50.0789 48.7761 50.6247C49.5053 49.8326 50.2239 48.9962 50.6178 47.9808C51.2992 46.347 51.1466 44.5378 51.301 42.81C50.797 42.5779 50.2931 42.3493 49.7839 42.1349C48.3982 41.5643 47.055 40.8927 45.671 40.3115C44.8531 39.7515 43.8683 39.5105 43.0291 38.9949C42.5305 38.6086 42.0798 38.1673 41.5511 37.8218ZM58.6502 41.8904C58.3184 42.9376 58.2634 44.0434 58.1427 45.1279C58.6679 45.1385 59.3794 45.3742 59.7414 44.8355C60.2169 44.0753 60.3553 43.1609 60.7545 42.3635C61.1963 41.5714 62.0338 41.0752 62.4082 40.2371C62.2414 39.6558 61.6009 39.3847 61.0402 39.4024C60.0164 39.9429 59.0068 40.7439 58.6484 41.8904H58.6502ZM60.4759 45.1739C61.0579 45.3192 61.8014 45.5514 62.197 44.9329C62.7382 44.1727 63.4568 43.5933 64.3723 43.3523C64.3262 42.6311 64.4309 41.6919 63.7123 41.2613C61.8457 41.6122 60.8965 43.4887 60.4759 45.1739ZM52.8357 43.4994C52.7523 45.002 52.9546 46.5756 52.3513 48.0003C51.8261 49.4835 50.8946 50.7877 49.7875 51.897C46.3027 52.7175 44.9613 62.7649 44.2658 66.1937C46.4021 65.3644 48.1586 63.7997 49.5728 62.0295C52.5412 58.3614 54.5391 53.9402 58.0061 50.6761C57.5164 50.5822 57.0302 50.4971 56.5441 50.4032C57.9653 49.3045 59.4291 48.2502 60.6995 46.9761C59.6882 46.6465 58.5898 47.07 57.6087 46.6234C57.0905 46.4551 56.796 45.9749 56.466 45.5815C55.8006 45.4876 55.0075 45.4185 54.6526 44.754C54.296 44.0363 53.5047 43.8201 52.834 43.5011L52.8357 43.4994ZM64.1754 45.1792C64.6562 45.4256 65.1406 45.6612 65.6286 45.8969C65.9213 45.7516 66.2159 45.6081 66.5139 45.4628C65.7812 45.0658 64.9721 44.7345 64.1754 45.1792ZM66.411 45.8916C66.0739 46.0227 65.8237 46.3311 65.735 46.6819C65.4831 47.5874 66.7624 48.4575 67.4774 47.7788C68.4888 47.1037 67.5129 45.3848 66.411 45.8916Z" fill="#11182A"/>
<path d="M83.9093 30.86C83.5651 30.86 83.3433 30.6987 83.2457 30.3745L79.9455 20.0347L79.9136 19.8894C79.9136 19.8025 79.9491 19.7246 80.0183 19.6555C80.0892 19.5846 80.1726 19.5509 80.2684 19.5509H82.2752C82.426 19.5509 82.552 19.5934 82.6549 19.6803C82.7578 19.7671 82.8252 19.8628 82.8572 19.9709L85.1531 27.4347L87.4331 19.9709C87.4651 19.8628 87.5325 19.7653 87.6354 19.6803C87.7383 19.5952 87.8643 19.5509 88.0151 19.5509H90.0378C90.1248 19.5509 90.2028 19.5863 90.272 19.6555C90.343 19.7263 90.3767 19.8025 90.3767 19.8894L90.3448 20.0347L87.0446 30.3745C86.947 30.697 86.727 30.86 86.381 30.86H83.9058H83.9093ZM95.7334 31.0212C94.7096 31.0212 93.8295 30.8706 93.0968 30.5694C92.364 30.2681 91.8104 29.873 91.4378 29.3821C91.0652 28.8913 90.87 28.3561 90.8469 27.7749C90.8469 27.6898 90.8824 27.6101 90.9516 27.541C91.0226 27.4719 91.106 27.4364 91.2018 27.4364H93.2405C93.37 27.4364 93.4747 27.4612 93.5563 27.5091C93.6361 27.5569 93.7213 27.6314 93.8065 27.727C93.9467 28.007 94.172 28.2392 94.486 28.4217C94.7983 28.6042 95.2135 28.6963 95.7316 28.6963C96.3455 28.6963 96.8157 28.5989 97.1386 28.4057C97.4616 28.2108 97.623 27.9486 97.623 27.6136C97.623 27.3762 97.5396 27.183 97.3729 27.0324C97.2061 26.8818 96.9435 26.7471 96.5886 26.6284C96.232 26.5097 95.705 26.375 95.0024 26.2244C93.7089 25.955 92.7401 25.5599 92.0996 25.0371C91.4573 24.5144 91.1361 23.7683 91.1361 22.799C91.1361 22.1416 91.3189 21.5551 91.6862 21.0376C92.0535 20.5202 92.5769 20.1162 93.2547 19.8256C93.9342 19.535 94.7273 19.3896 95.6322 19.3896C96.5709 19.3896 97.3853 19.5509 98.0755 19.8752C98.7657 20.1977 99.2909 20.6053 99.6529 21.0943C100.015 21.5852 100.206 22.0672 100.228 22.5403C100.228 22.6378 100.196 22.7175 100.13 22.7831C100.066 22.8469 99.9847 22.8805 99.8871 22.8805H97.7526C97.623 22.8805 97.5184 22.8593 97.4367 22.8168C97.3551 22.7742 97.2824 22.7033 97.2185 22.6059C97.1546 22.3578 96.979 22.1487 96.6933 21.975C96.4076 21.8032 96.0545 21.7163 95.634 21.7163C95.1479 21.7163 94.777 21.8014 94.518 21.975C94.2589 22.1469 94.1294 22.4003 94.1294 22.7352C94.1294 22.9621 94.2021 23.1499 94.3476 23.3005C94.4931 23.4511 94.7309 23.5894 95.0591 23.7116C95.3874 23.8357 95.8594 23.9615 96.475 24.0908C97.4775 24.2734 98.2778 24.502 98.8775 24.7766C99.4754 25.0513 99.9155 25.4075 100.196 25.8434C100.476 26.2793 100.616 26.8269 100.616 27.4825C100.616 28.2037 100.409 28.831 99.9935 29.3644C99.5783 29.8978 99.0017 30.3071 98.2636 30.5924C97.5254 30.8777 96.6809 31.0212 95.7316 31.0212H95.7334ZM102.641 30.86C102.533 30.86 102.439 30.8192 102.359 30.7395C102.277 30.658 102.238 30.5641 102.238 30.4577V19.9567C102.238 19.838 102.279 19.7405 102.359 19.6661C102.44 19.5917 102.534 19.5527 102.641 19.5527H110.194C110.313 19.5527 110.411 19.5899 110.485 19.6661C110.56 19.7423 110.599 19.838 110.599 19.9567V21.4753C110.599 21.5834 110.561 21.6773 110.485 21.7571C110.411 21.8386 110.313 21.8794 110.194 21.8794H105.034V24.0607H109.837C109.956 24.0607 110.054 24.1015 110.128 24.1812C110.203 24.2627 110.242 24.362 110.242 24.4807V25.8859C110.242 25.994 110.205 26.0879 110.128 26.1677C110.052 26.2492 109.956 26.2882 109.837 26.2882H105.034V28.5333H110.324C110.442 28.5333 110.538 28.5705 110.615 28.6467C110.689 28.7212 110.728 28.8186 110.728 28.9373V30.456C110.728 30.5641 110.691 30.658 110.615 30.7377C110.538 30.8175 110.442 30.8582 110.324 30.8582H102.641V30.86ZM116.795 31.0212C115.771 31.0212 114.891 30.8706 114.158 30.5694C113.425 30.2681 112.872 29.873 112.501 29.3821C112.128 28.8913 111.931 28.3561 111.91 27.7749C111.91 27.6898 111.945 27.6101 112.015 27.541C112.085 27.4719 112.169 27.4364 112.265 27.4364H114.303C114.433 27.4364 114.538 27.4612 114.619 27.5091C114.701 27.5569 114.784 27.6314 114.869 27.727C115.01 28.007 115.237 28.2392 115.549 28.4217C115.861 28.6042 116.276 28.6963 116.795 28.6963C117.408 28.6963 117.879 28.5989 118.202 28.4057C118.524 28.2108 118.686 27.9486 118.686 27.6136C118.686 27.3762 118.603 27.183 118.436 27.0324C118.269 26.8818 118.006 26.7471 117.652 26.6284C117.297 26.5097 116.768 26.375 116.067 26.2244C114.774 25.955 113.805 25.5599 113.164 25.0371C112.522 24.5144 112.201 23.7683 112.201 22.799C112.201 22.1416 112.384 21.5551 112.751 21.0376C113.116 20.5202 113.64 20.1162 114.319 19.8256C114.999 19.535 115.792 19.3896 116.697 19.3896C117.636 19.3896 118.45 19.5509 119.14 19.8752C119.83 20.1977 120.356 20.6053 120.718 21.0943C121.08 21.5852 121.271 22.0672 121.292 22.5403C121.292 22.6378 121.26 22.7175 121.195 22.7831C121.131 22.8469 121.049 22.8805 120.952 22.8805H118.817C118.688 22.8805 118.583 22.8593 118.501 22.8168C118.42 22.7742 118.347 22.7033 118.283 22.6059C118.219 22.3578 118.044 22.1487 117.758 21.975C117.472 21.8032 117.119 21.7163 116.699 21.7163C116.213 21.7163 115.842 21.8014 115.583 21.975C115.324 22.1469 115.194 22.4003 115.194 22.7352C115.194 22.9621 115.267 23.1499 115.412 23.3005C115.558 23.4511 115.796 23.5894 116.124 23.7116C116.454 23.8357 116.924 23.9615 117.54 24.0908C118.542 24.2734 119.344 24.502 119.942 24.7766C120.54 25.0513 120.98 25.4075 121.26 25.8434C121.541 26.2793 121.681 26.8269 121.681 27.4825C121.681 28.2037 121.473 28.831 121.058 29.3644C120.643 29.8978 120.066 30.3071 119.328 30.5924C118.59 30.8777 117.746 31.0212 116.796 31.0212H116.795ZM124.979 30.86C124.797 30.86 124.651 30.8086 124.543 30.7058C124.435 30.6031 124.371 30.4772 124.348 30.3266L122.584 20.0045C122.573 19.9726 122.568 19.9337 122.568 19.8911C122.568 19.8043 122.604 19.7263 122.673 19.6572C122.742 19.5863 122.82 19.5527 122.907 19.5527H124.912C125.214 19.5527 125.38 19.6714 125.414 19.9071L126.465 26.2066L127.629 22.4907C127.747 22.2001 127.925 22.0548 128.163 22.0548H129.327C129.596 22.0548 129.774 22.2001 129.861 22.4907L131.025 26.2066L132.075 19.9071C132.107 19.6696 132.275 19.5527 132.577 19.5527H134.582C134.68 19.5527 134.763 19.5881 134.832 19.6572C134.903 19.7281 134.937 19.8043 134.937 19.8911L134.921 20.0045L133.159 30.3266C133.138 30.4772 133.07 30.6048 132.957 30.7058C132.843 30.8086 132.7 30.86 132.527 30.86H130.991C130.819 30.86 130.684 30.8175 130.586 30.7306C130.489 30.6438 130.42 30.5481 130.377 30.44L128.743 25.8203L127.109 30.44C127.011 30.72 126.812 30.86 126.511 30.86H124.974H124.979ZM137.015 30.86C136.906 30.86 136.812 30.8192 136.733 30.7395C136.651 30.658 136.612 30.5641 136.612 30.4577V19.9567C136.612 19.838 136.653 19.7405 136.733 19.6661C136.814 19.5917 136.908 19.5527 137.015 19.5527H144.568C144.687 19.5527 144.784 19.5899 144.859 19.6661C144.933 19.7423 144.972 19.838 144.972 19.9567V21.4753C144.972 21.5834 144.935 21.6773 144.859 21.7571C144.784 21.8386 144.687 21.8794 144.568 21.8794H139.408V24.0607H144.211C144.33 24.0607 144.428 24.1015 144.502 24.1812C144.579 24.2627 144.616 24.362 144.616 24.4807V25.8859C144.616 25.994 144.579 26.0879 144.502 26.1677C144.428 26.2492 144.33 26.2882 144.211 26.2882H139.408V28.5333H144.697C144.816 28.5333 144.912 28.5705 144.988 28.6467C145.063 28.7212 145.102 28.8186 145.102 28.9373V30.456C145.102 30.5641 145.065 30.658 144.988 30.7377C144.912 30.8175 144.816 30.8582 144.697 30.8582H137.015V30.86ZM147.35 30.86C147.242 30.86 147.148 30.8192 147.068 30.7395C146.986 30.658 146.946 30.5641 146.946 30.4577V19.9567C146.946 19.838 146.986 19.7405 147.068 19.6661C147.148 19.5917 147.244 19.5527 147.35 19.5527H154.903C155.022 19.5527 155.12 19.5899 155.194 19.6661C155.271 19.7423 155.308 19.838 155.308 19.9567V21.4753C155.308 21.5834 155.271 21.6773 155.194 21.7571C155.12 21.8386 155.022 21.8794 154.903 21.8794H149.744V24.0607H154.548C154.667 24.0607 154.765 24.1015 154.839 24.1812C154.914 24.2627 154.953 24.362 154.953 24.4807V25.8859C154.953 25.994 154.916 26.0879 154.839 26.1677C154.765 26.2492 154.667 26.2882 154.548 26.2882H149.744V28.5333H155.033C155.152 28.5333 155.248 28.5705 155.324 28.6467C155.4 28.7212 155.437 28.8186 155.437 28.9373V30.456C155.437 30.5641 155.4 30.658 155.324 30.7377C155.248 30.8175 155.152 30.8582 155.033 30.8582H147.35V30.86ZM160.177 30.86C160.068 30.86 159.974 30.8192 159.894 30.7395C159.813 30.658 159.772 30.5641 159.772 30.4577V22.0902H156.892C156.784 22.0902 156.69 22.0495 156.61 21.9697C156.53 21.8882 156.49 21.7943 156.49 21.6862V19.9585C156.49 19.8397 156.53 19.7423 156.61 19.6679C156.692 19.5934 156.786 19.5544 156.892 19.5544H165.595C165.714 19.5544 165.812 19.5917 165.886 19.6679C165.963 19.7441 166 19.8397 166 19.9585V21.6862C166 21.8049 165.963 21.9024 165.886 21.9768C165.812 22.053 165.714 22.0902 165.595 22.0902H162.716V30.4577C162.716 30.5658 162.678 30.6598 162.602 30.7395C162.528 30.8192 162.43 30.86 162.311 30.86H160.177Z" fill="#FF7B0F"/>
<path d="M80.9764 64.5922C80.6925 64.5922 80.4459 64.4859 80.2329 64.275C80.02 64.0641 79.9153 63.816 79.9153 63.5325V35.9757C79.9153 35.6656 80.0218 35.4104 80.2329 35.2119C80.4441 35.0153 80.6925 34.916 80.9764 34.916H93.9236C97.49 34.916 100.143 35.6443 101.883 37.0992C103.624 38.554 104.493 40.6237 104.493 43.3101C104.493 44.7224 104.133 45.9168 103.411 46.8932C102.689 47.8678 101.876 48.5819 100.969 49.0338C102.13 49.5707 103.106 50.4319 103.899 51.6192C104.692 52.8064 105.088 54.1337 105.088 55.6045C105.088 58.4309 104.154 60.6353 102.286 62.2177C100.418 63.8001 97.7579 64.5922 94.3051 64.5922H80.9764ZM93.0737 46.7018C94.2057 46.7018 95.068 46.4112 95.6624 45.8335C96.2568 45.254 96.5531 44.4832 96.5531 43.5228C96.5531 42.5907 96.2568 41.8411 95.6624 41.2758C95.068 40.7106 94.2057 40.427 93.0737 40.427H87.5556V46.7018H93.0737ZM93.4552 59.0812C94.6156 59.0812 95.5205 58.7427 96.1716 58.064C96.8228 57.3854 97.1475 56.5667 97.1475 55.6045C97.1475 54.5873 96.8228 53.7456 96.1716 53.0811C95.5205 52.4166 94.6156 52.0852 93.4552 52.0852H87.5556V59.0794H93.4552V59.0812ZM122.277 65.0157C118.287 65.0157 115.167 64.0411 112.918 62.0901C110.668 60.1391 109.543 57.2011 109.543 53.2725V35.9757C109.543 35.6656 109.649 35.4104 109.861 35.2119C110.072 35.0153 110.32 34.916 110.604 34.916H116.079C116.39 34.916 116.653 35.0153 116.864 35.2119C117.077 35.4104 117.183 35.6638 117.183 35.9757V53.2299C117.183 55.0675 117.614 56.4444 118.477 57.3641C119.341 58.282 120.592 58.7427 122.233 58.7427C123.846 58.7427 125.091 58.2767 125.968 57.3428C126.844 56.4107 127.284 55.0392 127.284 53.2317V35.9775C127.284 35.6674 127.391 35.4122 127.602 35.2137C127.815 35.017 128.061 34.9178 128.345 34.9178H133.863C134.176 34.9178 134.429 35.017 134.628 35.2137C134.825 35.4122 134.925 35.6656 134.925 35.9775V53.2742C134.925 57.2028 133.8 60.1426 131.55 62.0919C129.3 64.0429 126.209 65.0175 122.275 65.0175L122.277 65.0157ZM141.633 64.5922C141.349 64.5922 141.103 64.4859 140.89 64.275C140.677 64.0641 140.572 63.816 140.572 63.5325V35.9757C140.572 35.6656 140.679 35.4104 140.89 35.2119C141.101 35.0153 141.349 34.916 141.633 34.916H152.669C156.828 34.916 160.056 35.9048 162.348 37.8842C164.641 39.8618 165.844 42.7307 165.956 46.4909C165.984 47.3096 165.998 48.3994 165.998 49.755C165.998 51.1124 165.984 52.1862 165.956 52.9765C165.814 56.9051 164.648 59.8237 162.453 61.7304C160.26 63.6388 157.07 64.5922 152.881 64.5922H141.631H141.633ZM152.669 58.4876C154.538 58.4876 155.909 58.0428 156.786 57.1514C157.662 56.2619 158.131 54.8407 158.186 52.8915C158.243 52.0728 158.271 51.0131 158.271 49.7125C158.271 48.4118 158.243 47.3663 158.186 46.5742C158.129 44.6817 157.627 43.2818 156.679 42.378C155.732 41.4743 154.323 41.0207 152.457 41.0207H148.212V58.4876H152.669Z" fill="#11182A"/>
<path fill-rule="evenodd" clip-rule="evenodd" d="M40.1902 69.1389L38.7938 68.446L38.5117 68.7295C38.4513 67.7035 37.8002 66.052 36.9769 65.4371L36.0347 64.9728C35.4261 62.8269 32.9509 62.4902 31.0152 63.2664L33.8363 59.2669C33.1994 58.3968 33.0574 57.2113 33.5702 56.18L33.9925 55.3312C34.7235 53.8604 36.5173 53.258 37.99 53.988L40.6408 55.3029C41.5156 55.0548 42.4453 55.1398 43.2651 55.5456L46.3133 57.0572C47.1331 57.463 47.7629 58.1523 48.093 58.9976C48.4656 59.1818 49.1824 59.4919 49.5018 59.7808C50.3375 60.3762 50.9674 61.202 51.2938 62.1801L51.5032 62.8039L52.4489 63.2735C53.7069 63.8972 54.5054 65.1288 54.6171 66.4649L56.3737 67.3066C57.3798 67.8045 57.7896 69.0255 57.291 70.0302C56.7925 71.0332 55.5699 71.4443 54.5657 70.9463L52.8091 70.1046C51.6735 70.8223 50.2097 70.9322 48.9517 70.3084L48.006 69.8388L47.5518 69.9912C47.951 71.2192 47.1171 72.5057 45.8254 72.6404L44.4805 75.3463C43.7477 76.8171 41.9556 77.4196 40.4829 76.6895C39.0085 75.9576 38.4052 74.1679 39.138 72.6971L40.4829 69.9912C40.325 69.7325 40.2274 69.4419 40.1955 69.1406L40.1902 69.1389Z" fill="#11182A"/>
<path d="M42.4258 68.5085L43.7015 69.1412L47.9226 60.6514L48.1409 60.7595C48.1888 60.7825 48.2278 60.8162 48.2722 60.8427C48.297 60.8516 48.3236 60.8516 48.3467 60.8622C48.407 60.8924 48.4585 60.9349 48.4993 60.9827C49.1097 61.3885 49.5745 61.968 49.8123 62.6733L49.9258 63.0135L47.2182 68.4589L46.8776 68.5741C46.2637 68.7797 45.6196 68.7992 45.0074 68.6432L44.5497 69.5629L45.8254 70.1955C46.0596 70.3125 46.1554 70.596 46.0401 70.8299C45.923 71.0638 45.6391 71.1595 45.4049 71.0443L44.979 70.8335L43.0788 74.6539C42.7292 75.3557 41.874 75.6427 41.1714 75.2954C40.4687 74.9463 40.1795 74.0922 40.5291 73.3905L42.4294 69.57L42.0035 69.3591C41.7693 69.2422 41.6735 68.9586 41.7888 68.7247C41.9059 68.4908 42.1898 68.3951 42.424 68.5103L42.4258 68.5085Z" fill="#FF7B0F"/>
<path d="M52.9901 67.3977L56.3755 68.9783C56.6097 69.0953 56.7055 69.3788 56.5902 69.6145C56.4731 69.8484 56.1892 69.9441 55.955 69.8289L52.5696 68.2465C51.8918 69.1165 50.6693 69.4213 49.6437 68.9128L48.368 68.2801L50.4794 64.0361L51.7552 64.6687C52.7807 65.1773 53.2775 66.3327 52.9919 67.3994L52.9901 67.3977Z" fill="white"/>
<path d="M35.6071 58.7759C34.9045 58.4268 34.617 57.5727 34.9648 56.8692L35.3871 56.0204C35.7366 55.3187 36.5919 55.0316 37.2945 55.3789L40.0944 56.7682C40.3676 56.9029 40.6781 56.9259 40.9691 56.8284C41.4996 56.6495 42.0674 56.6902 42.5678 56.9383L45.616 58.4499C46.1164 58.6979 46.4925 59.1268 46.67 59.6566C46.7463 59.8816 46.9006 60.0571 47.0869 60.1953L43.2704 67.87L41.9343 68.111C41.8154 68.1499 41.6841 68.1411 41.5724 68.0861L39.649 67.1328C39.6029 66.9396 39.539 66.7412 39.4538 66.5374C38.6749 64.698 35.7561 62.7842 33.6713 62.1959L35.7313 59.2756C35.8502 59.1055 35.7916 58.8698 35.6053 58.7759H35.6071ZM43.6732 59.6017L41.9734 58.7582C41.4144 58.4817 40.9922 59.3305 41.5511 59.607L43.2509 60.4505C43.8098 60.7269 44.2321 59.8781 43.6732 59.6017ZM39.0191 64.7016L40.7189 65.5451C41.2778 65.8215 41.7001 64.9727 41.1412 64.6963L39.4414 63.8528C38.8825 63.5763 38.4602 64.4251 39.0191 64.7016ZM38.1639 62.1605L43.2651 64.6892C43.824 64.9674 44.2463 64.1168 43.6873 63.8404L38.5862 61.3117C38.0273 61.0335 37.605 61.884 38.1639 62.1605ZM39.0085 60.4629L44.1096 62.9916C44.6685 63.2698 45.0908 62.4192 44.5319 62.1428L39.4308 59.6141C38.8718 59.3359 38.4496 60.1847 39.0085 60.4629Z" fill="white"/>
</g>
<defs>
<clipPath id="clip0_8_65">
<rect width="166" height="77" fill="white"/>
</clipPath>
</defs>
</svg>
